<svg xmlns="http://www.w3.org/2000/svg" xmlns:xlink="http://www.w3.org/1999/xlink" width="1024" height="992" preserveAspectRatio="xMidYMid meet" viewBox="0 0 1024 992" style="-ms-transform: rotate(360deg); -webkit-transform: rotate(360deg); transform: rotate(360deg);"><path d="M1015.5 267.5Q1006 254 990 254H890L685 80q-13-13-29-17t-32.5 0T594 80L393 254h-82L259 77q-7-24-19-41t-25.5-24T191 2.5T171 0H34Q21 0 12 9T3 32q0 8 4 15.5T18.5 59T34 63h137q3 0 5.5 1t6.5 3.5t8 9.5t7 18l177 650q3 10 11.5 16.5T405 768h432q10 0 18.5-6t11.5-15l153-450q5-16-4.5-29.5zM640 125l152 130H487zm175 579H430L328 318h616zm-63 128q-33 0-56.5 23.5T672 912t23.5 56.5T752 992t56.5-23.5T832 912q0-16-6.5-31t-17-25.5t-25.5-17t-31-6.5zm-288 0q-22 0-40.5 11t-29 29t-10.5 40q0 33 23.5 56.5T464 992t56.5-23.5T544 912q0-46-41-69q-18-11-39-11z" fill="#626262"/><rect x="0" y="0" width="1024" height="992" fill="rgba(0, 0, 0, 0)" /></svg>