<svg width="29" height="28" viewBox="0 0 29 28" fill="none" xmlns="http://www.w3.org/2000/svg">
<g clip-path="url(#clip0)">
<path d="M23.885 18.3238C23.0832 17.2133 22.6826 15.9622 22.6826 14.5716C22.6826 13.304 23.0607 12.1426 23.8153 11.0883C24.2219 10.5162 24.8844 9.85454 25.8022 9.1028C25.1982 8.38507 24.594 7.82418 23.9895 7.42023C22.8974 6.69118 21.6599 6.32666 20.2774 6.32666C19.4527 6.32666 18.4475 6.51726 17.2627 6.89893C16.124 7.28031 15.2932 7.47121 14.7706 7.47121C14.3754 7.47121 13.5738 7.30306 12.3655 6.96636C11.1456 6.62977 10.1173 6.46162 9.28079 6.46162C7.28242 6.46162 5.63259 7.26941 4.33138 8.88462C3.0185 10.5225 2.36194 12.6201 2.36194 15.1779C2.36194 17.8926 3.21609 20.7136 4.9239 23.6415C6.65491 26.5469 8.40356 27.9998 10.1696 27.9998C10.7621 27.9998 11.5289 27.8091 12.4699 27.4277C13.4111 27.0578 14.236 26.8724 14.9448 26.8724C15.6998 26.8724 16.5771 27.0519 17.5762 27.4107C18.6334 27.7693 19.4469 27.9489 20.0161 27.9489C21.5032 27.9489 22.9964 26.8495 24.495 24.6508C25.4707 23.2487 26.1853 21.8465 26.6384 20.4442C25.6044 20.1411 24.6867 19.4344 23.885 18.3238Z" fill="white"/>
<path d="M17.9592 5.31719C18.6914 4.61048 19.2316 3.83635 19.5803 2.99515C19.917 2.15383 20.0851 1.3909 20.0851 0.70653C20.0851 0.661797 20.0826 0.605631 20.0763 0.538267C20.0711 0.470961 20.068 0.41503 20.068 0.370121C20.0563 0.336409 20.0418 0.274703 20.0245 0.18506C20.0072 0.0954181 19.9927 0.0337116 19.9808 0C17.936 0.460176 16.4837 1.29024 15.6239 2.4906C14.7528 3.70215 14.2994 5.1435 14.2645 6.81494C15.043 6.74758 15.6469 6.65239 16.077 6.52892C16.7048 6.32695 17.3315 5.92294 17.9592 5.31719Z" fill="white"/>
</g>
<defs>
<clipPath id="clip0">
<rect width="29" height="28" fill="white"/>
</clipPath>
</defs>
</svg>
