<svg width="41" height="40" viewBox="0 0 41 40" fill="none" xmlns="http://www.w3.org/2000/svg">
<path d="M40.7495 10.7863C40.4946 10.4234 40.1525 10.2419 39.7232 10.2419H35.6986L27.4481 3.22581C27.0993 2.87634 26.7102 2.64785 26.2809 2.54032C25.8516 2.4328 25.4156 2.4328 24.9729 2.54032C24.5302 2.64785 24.1344 2.87634 23.7856 3.22581L15.6961 10.2419H12.3959L10.3031 3.10484C10.1153 2.45968 9.86037 1.9086 9.5384 1.45161C9.21643 0.994624 8.87434 0.672043 8.51212 0.483871C8.1499 0.295699 7.83464 0.168011 7.56633 0.100806C7.29802 0.0336022 7.02971 0 6.7614 0H1.24764C0.898837 0 0.603696 0.120968 0.362218 0.362903C0.120739 0.604839 0 0.913978 0 1.29032C0 1.50538 0.0536619 1.71371 0.160986 1.91532C0.268309 2.11694 0.422587 2.27151 0.62382 2.37903C0.825052 2.48656 1.03299 2.54032 1.24764 2.54032H6.7614C6.84189 2.54032 6.91568 2.55376 6.98275 2.58065C7.04983 2.60753 7.13703 2.65457 7.24436 2.72177C7.35168 2.78898 7.459 2.91667 7.56633 3.10484C7.67365 3.29301 7.76756 3.53495 7.84805 3.83065L14.9717 30.0403C15.0522 30.3091 15.2064 30.5309 15.4345 30.7056C15.6626 30.8804 15.9108 30.9677 16.1791 30.9677H33.5655C33.8338 30.9677 34.082 30.8871 34.3101 30.7258C34.5381 30.5645 34.6924 30.3629 34.7729 30.121L40.9306 11.9758C41.0648 11.5457 41.0044 11.1492 40.7495 10.7863ZM25.637 5.04032L31.7544 10.2823H19.4793L25.637 5.04032ZM32.6801 28.3871H17.1852L13.0801 12.8226H37.8719L32.6801 28.3871ZM30.1446 33.5484C29.2591 33.5484 28.5012 33.8642 27.8706 34.496C27.2401 35.1277 26.9249 35.8871 26.9249 36.7742C26.9249 37.6613 27.2401 38.4207 27.8706 39.0524C28.5012 39.6841 29.2591 40 30.1446 40C31.03 40 31.788 39.6841 32.4185 39.0524C33.049 38.4207 33.3643 37.6613 33.3643 36.7742C33.3643 36.3441 33.2771 35.9274 33.1027 35.5242C32.9283 35.121 32.7002 34.7782 32.4185 34.496C32.1368 34.2137 31.7947 33.9852 31.3922 33.8105C30.9897 33.6358 30.5739 33.5484 30.1446 33.5484ZM18.5536 33.5484C17.9633 33.5484 17.42 33.6962 16.9236 33.9919C16.4272 34.2876 16.0382 34.6774 15.7565 35.1613C15.4747 35.6452 15.3339 36.1828 15.3339 36.7742C15.3339 37.6613 15.6491 38.4207 16.2797 39.0524C16.9102 39.6841 17.6682 40 18.5536 40C19.439 40 20.197 39.6841 20.8275 39.0524C21.458 38.4207 21.7733 37.6613 21.7733 36.7742C21.7733 35.5376 21.2233 34.6102 20.1232 33.9919C19.6403 33.6962 19.117 33.5484 18.5536 33.5484Z" fill="#211710"/>
</svg>
