<svg width="41" height="40" viewBox="0 0 41 40" fill="none" xmlns="http://www.w3.org/2000/svg">
<path d="M40.5396 10.7863C40.286 10.4234 39.9456 10.2419 39.5186 10.2419H12.332L10.25 3.10484C10.0632 2.45968 9.80957 1.9086 9.48926 1.45161C9.16895 0.994624 8.82861 0.672043 8.46826 0.483871C8.10791 0.295699 7.79427 0.168011 7.52734 0.100806C7.26042 0.0336022 6.99349 0 6.72656 0H1.24121C0.894206 0 0.600586 0.120968 0.360352 0.362903C0.120117 0.604839 0 0.913978 0 1.29032C0 1.50538 0.0533854 1.71371 0.160156 1.91532C0.266927 2.11694 0.42041 2.27151 0.620605 2.37903C0.820801 2.48656 1.02767 2.54032 1.24121 2.54032H6.72656C6.83333 2.54032 6.93343 2.55376 7.02686 2.58065C7.12028 2.60753 7.24707 2.72177 7.40723 2.92339C7.56738 3.125 7.70085 3.42742 7.80762 3.83065L14.8945 30.0403C14.9479 30.2016 15.0347 30.3562 15.1548 30.504C15.2749 30.6519 15.415 30.7661 15.5752 30.8468C15.7354 30.9274 15.9089 30.9677 16.0957 30.9677H33.3926C33.6595 30.9677 33.9064 30.8871 34.1333 30.7258C34.3602 30.5645 34.5137 30.3629 34.5938 30.121L40.7197 11.9758C40.8532 11.5457 40.7931 11.1492 40.5396 10.7863ZM32.5117 28.3871H17.0967L13.0127 12.8226H37.6768L32.5117 28.3871ZM29.9893 33.5484C29.1084 33.5484 28.3543 33.8642 27.7271 34.496C27.0998 35.1277 26.7861 35.8871 26.7861 36.7742C26.7861 37.6613 27.0998 38.4207 27.7271 39.0524C28.3543 39.6841 29.1084 40 29.9893 40C30.8701 40 31.6242 39.6841 32.2515 39.0524C32.8787 38.4207 33.1924 37.6613 33.1924 36.7742C33.1924 35.8871 32.8787 35.1277 32.2515 34.496C31.6242 33.8642 30.8701 33.5484 29.9893 33.5484ZM18.458 33.5484C17.8708 33.5484 17.3302 33.6962 16.8364 33.9919C16.3426 34.2876 15.9556 34.6774 15.6753 35.1613C15.395 35.6452 15.2549 36.1828 15.2549 36.7742C15.2549 37.6613 15.5685 38.4207 16.1958 39.0524C16.8231 39.6841 17.5771 40 18.458 40C19.3389 40 20.0929 39.6841 20.7202 39.0524C21.3475 38.4207 21.6611 37.6613 21.6611 36.7742C21.6611 36.5591 21.6411 36.3441 21.6011 36.129C21.561 35.914 21.501 35.7124 21.4209 35.5242C21.3408 35.336 21.2407 35.1546 21.1206 34.9798C21.0005 34.8051 20.867 34.6438 20.7202 34.496C20.5734 34.3481 20.4132 34.2137 20.2397 34.0927C20.0662 33.9718 19.8861 33.871 19.6992 33.7903C19.5124 33.7097 19.3122 33.6492 19.0986 33.6089C18.8851 33.5685 18.6715 33.5484 18.458 33.5484Z" fill="#211710"/>
</svg>
