<svg width="40" height="40" viewBox="0 0 40 40" fill="none" xmlns="http://www.w3.org/2000/svg">
<path d="M37.5 0H2.5C1.82292 0 1.23698 0.247396 0.742188 0.742188C0.247396 1.23698 0 1.82292 0 2.5V37.5C0 38.1771 0.247396 38.763 0.742188 39.2578C1.23698 39.7526 1.82292 40 2.5 40H37.5C38.1771 40 38.763 39.7526 39.2578 39.2578C39.7526 38.763 40 38.1771 40 37.5V2.5C40 2.05729 39.8893 1.64062 39.668 1.25C39.4466 0.859375 39.1406 0.553385 38.75 0.332031C38.3594 0.110677 37.9427 0 37.5 0ZM37.5 37.5H2.5V2.5H37.5V37.5ZM8.75 13.75H11.25V16.25C11.25 16.6146 11.3737 16.9141 11.6211 17.1484C11.8685 17.3828 12.1615 17.5 12.5 17.5C12.8385 17.5 13.1315 17.3828 13.3789 17.1484C13.6263 16.9141 13.75 16.6146 13.75 16.25V13.75H16.25C16.5885 13.75 16.8815 13.6328 17.1289 13.3984C17.3763 13.1641 17.5 12.8711 17.5 12.5195C17.5 12.168 17.3763 11.8685 17.1289 11.6211C16.8815 11.3737 16.5885 11.25 16.25 11.25H13.75V8.75C13.75 8.41146 13.6263 8.11849 13.3789 7.87109C13.1315 7.6237 12.8385 7.5 12.5 7.5C12.1615 7.5 11.8685 7.6237 11.6211 7.87109C11.3737 8.11849 11.25 8.41146 11.25 8.75V11.25H8.75C8.41146 11.25 8.11849 11.3737 7.87109 11.6211C7.6237 11.8685 7.5 12.168 7.5 12.5195C7.5 12.8711 7.6237 13.1641 7.87109 13.3984C8.11849 13.6328 8.41146 13.75 8.75 13.75ZM16.9336 23.1055C16.6862 22.8581 16.3867 22.7344 16.0352 22.7344C15.6836 22.7344 15.3906 22.8516 15.1562 23.0859L12.5 25.7422L9.84375 23.0859C9.60938 22.8516 9.31641 22.7344 8.96484 22.7344C8.61328 22.7344 8.3138 22.8581 8.06641 23.1055C7.81901 23.3529 7.69531 23.6458 7.69531 23.9844C7.69531 24.3229 7.82552 24.6094 8.08594 24.8438L10.7422 27.5L8.08594 30.1562C7.92969 30.3125 7.81901 30.5013 7.75391 30.7227C7.6888 30.944 7.6888 31.1589 7.75391 31.3672C7.81901 31.5755 7.92969 31.7578 8.08594 31.9141C8.1901 32.0443 8.32031 32.1419 8.47656 32.207C8.63281 32.2721 8.79557 32.3047 8.96484 32.3047C9.13411 32.3047 9.29688 32.2721 9.45312 32.207C9.60938 32.1419 9.73958 32.0443 9.84375 31.9141L12.5 29.2969L15.1562 31.9141C15.2604 32.0443 15.3906 32.1419 15.5469 32.207C15.7031 32.2721 15.8659 32.3047 16.0352 32.3047C16.2044 32.3047 16.3672 32.2721 16.5234 32.207C16.6797 32.1419 16.8099 32.0443 16.9141 31.9141C17.513 31.3411 17.513 30.7552 16.9141 30.1562L14.2578 27.5L16.9141 24.8438C17.1745 24.6094 17.3047 24.3229 17.3047 23.9844C17.3047 23.6458 17.181 23.3529 16.9336 23.1055ZM23.75 13.75H31.25C31.5885 13.75 31.8815 13.6328 32.1289 13.3984C32.3763 13.1641 32.5 12.8711 32.5 12.5195C32.5 12.168 32.3763 11.8685 32.1289 11.6211C31.8815 11.3737 31.5885 11.25 31.25 11.25H23.75C23.4115 11.25 23.1185 11.3737 22.8711 11.6211C22.6237 11.8685 22.5 12.168 22.5 12.5195C22.5 12.8711 22.6237 13.1641 22.8711 13.3984C23.1185 13.6328 23.4115 13.75 23.75 13.75ZM23.75 26.25H31.25C31.5885 26.25 31.8815 26.1328 32.1289 25.8984C32.3763 25.6641 32.5 25.3711 32.5 25.0195C32.5 24.668 32.3763 24.3685 32.1289 24.1211C31.8815 23.8737 31.5885 23.75 31.25 23.75H23.75C23.4115 23.75 23.1185 23.8737 22.8711 24.1211C22.6237 24.3685 22.5 24.668 22.5 25.0195C22.5 25.3711 22.6237 25.6641 22.8711 25.8984C23.1185 26.1328 23.4115 26.25 23.75 26.25ZM23.75 31.25H31.25C31.5885 31.25 31.8815 31.1328 32.1289 30.8984C32.3763 30.6641 32.5 30.3711 32.5 30.0195C32.5 29.668 32.3763 29.3685 32.1289 29.1211C31.8815 28.8737 31.5885 28.75 31.25 28.75H23.75C23.4115 28.75 23.1185 28.8737 22.8711 29.1211C22.6237 29.3685 22.5 29.668 22.5 30.0195C22.5 30.3711 22.6237 30.6641 22.8711 30.8984C23.1185 31.1328 23.4115 31.25 23.75 31.25Z" fill="#211710"/>
</svg>
