<svg width="40" height="40" viewBox="0 0 40 40" fill="none" xmlns="http://www.w3.org/2000/svg">
<path d="M20 0C16.3802 0 13.0339 0.891927 9.96094 2.67578C6.88802 4.45964 4.45964 6.88802 2.67578 9.96094C0.891927 13.0339 0 16.3802 0 20C0 23.6198 0.891927 26.9661 2.67578 30.0391C4.45964 33.112 6.88802 35.5404 9.96094 37.3242C13.0339 39.1081 16.3802 40 20 40C23.6198 40 26.9661 39.1081 30.0391 37.3242C33.112 35.5404 35.5404 33.112 37.3242 30.0391C39.1081 26.9661 40 23.6198 40 20C40 16.3802 39.1081 13.0339 37.3242 9.96094C35.5404 6.88802 33.112 4.45964 30.0391 2.67578C26.9661 0.891927 23.6198 0 20 0ZM20 37.5391C18.099 37.5391 16.2565 37.2461 14.4727 36.6602C12.6888 36.0742 11.0807 35.2344 9.64844 34.1406C8.21615 33.0469 6.95964 31.7839 5.87891 30.3516C4.79818 28.9193 3.96484 27.3112 3.37891 25.5273C2.79297 23.7435 2.5 21.901 2.5 20C2.5 17.6302 2.96224 15.3646 3.88672 13.2031C4.8112 11.0417 6.05469 9.17969 7.61719 7.61719C9.17969 6.05469 11.0417 4.8112 13.2031 3.88672C15.3646 2.96224 17.6302 2.5 20 2.5C22.3698 2.5 24.6354 2.96224 26.7969 3.88672C28.9583 4.8112 30.8203 6.05469 32.3828 7.61719C33.9453 9.17969 35.1888 11.0417 36.1133 13.2031C37.0378 15.3646 37.5 17.6302 37.5 20C37.5 22.3698 37.0378 24.6354 36.1133 26.7969C35.1888 28.9583 33.9453 30.8268 32.3828 32.4023C30.8203 33.9779 28.9583 35.2279 26.7969 36.1523C24.6354 37.0768 22.3698 37.5391 20 37.5391ZM27.9688 12.6953L16.25 24.4922L10.9766 19.2188C10.7161 18.9583 10.4167 18.8281 10.0781 18.8281C9.73958 18.8281 9.4401 18.9583 9.17969 19.2188C9.1276 19.2708 9.07552 19.3424 9.02344 19.4336C8.97135 19.5247 8.93229 19.6094 8.90625 19.6875C8.88021 19.7656 8.86068 19.8503 8.84766 19.9414C8.83464 20.0326 8.83464 20.1237 8.84766 20.2148C8.86068 20.306 8.88021 20.3971 8.90625 20.4883C8.93229 20.5794 8.97135 20.6641 9.02344 20.7422L9.17969 20.9766L15.3906 27.1484C15.625 27.4089 15.918 27.5391 16.2695 27.5391C16.6211 27.5391 16.9141 27.4089 17.1484 27.1484L17.3047 26.9922L29.7656 14.4531C30 14.2188 30.1172 13.9258 30.1172 13.5742C30.1172 13.2227 30 12.9297 29.7656 12.6953C29.2969 12.2266 28.7891 12.1615 28.2422 12.5C28.138 12.5521 28.0469 12.6172 27.9688 12.6953Z" fill="#211710"/>
</svg>
