<svg width="55" height="55" viewBox="0 0 55 55" fill="none" xmlns="http://www.w3.org/2000/svg">
<path d="M27.5 0C22.5228 0 17.9215 1.2264 13.6963 3.6792C9.47103 6.132 6.132 9.47103 3.6792 13.6963C1.2264 17.9215 0 22.5228 0 27.5C0 32.4772 1.2264 37.0785 3.6792 41.3037C6.132 45.529 9.47103 48.868 13.6963 51.3208C17.9215 53.7736 22.5228 55 27.5 55C32.4772 55 37.0785 53.7736 41.3037 51.3208C45.529 48.868 48.868 45.529 51.3208 41.3037C53.7736 37.0785 55 32.4772 55 27.5C55 22.5228 53.7736 17.9215 51.3208 13.6963C48.868 9.47103 45.529 6.132 41.3037 3.6792C37.0785 1.2264 32.4772 0 27.5 0ZM27.5 51.6162C24.8861 51.6162 22.3527 51.2134 19.8999 50.4077C17.4471 49.6021 15.236 48.4473 13.2666 46.9434C11.2972 45.4395 9.5695 43.7028 8.0835 41.7334C6.59749 39.764 5.45166 37.5529 4.646 35.1001C3.84033 32.6473 3.4375 30.1139 3.4375 27.5C3.4375 24.2415 4.07308 21.1263 5.34424 18.1543C6.6154 15.1823 8.3252 12.6221 10.4736 10.4736C12.6221 8.3252 15.1823 6.6154 18.1543 5.34424C21.1263 4.07308 24.2415 3.4375 27.5 3.4375C30.7585 3.4375 33.8737 4.07308 36.8457 5.34424C39.8177 6.6154 42.3779 8.3252 44.5264 10.4736C46.6748 12.6221 48.3846 15.1823 49.6558 18.1543C50.9269 21.1263 51.5625 24.2415 51.5625 27.5C51.5625 30.7585 50.9269 33.8737 49.6558 36.8457C48.3846 39.8177 46.6748 42.3869 44.5264 44.5532C42.3779 46.7196 39.8177 48.4383 36.8457 49.7095C33.8737 50.9806 30.7585 51.6162 27.5 51.6162ZM29.2188 26.8018V10.3125C29.2188 9.84701 29.0487 9.44417 28.7085 9.104C28.3683 8.76383 27.9655 8.59375 27.5 8.59375C27.0345 8.59375 26.6317 8.76383 26.2915 9.104C25.9513 9.44417 25.7812 9.84701 25.7812 10.3125V27.5C25.7812 28.0013 25.9603 28.4131 26.3184 28.7354L26.3452 28.7891L26.3721 28.8428L34.9121 37.3291C35.2344 37.6872 35.6372 37.8662 36.1206 37.8662C36.604 37.8662 37.0068 37.6961 37.3291 37.356C37.6514 37.0158 37.8125 36.604 37.8125 36.1206C37.8125 35.6372 37.6514 35.2344 37.3291 34.9121L29.2188 26.8018Z" fill="#211710"/>
</svg>
