<svg width="40" height="38" viewBox="0 0 40 38" fill="none" xmlns="http://www.w3.org/2000/svg">
<path d="M16.6016 25.4148C19.5964 25.4148 22.3047 24.8778 24.7266 23.804C27.1484 22.7301 29.056 21.1989 30.4492 19.2102C31.8424 17.2216 32.526 14.9545 32.5 12.4091C32.5 11.5606 32.3893 10.7254 32.168 9.90341C31.9466 9.08144 31.6341 8.29924 31.2305 7.55682C30.8268 6.81439 30.332 6.11174 29.7461 5.44886C29.1602 4.78599 28.5091 4.17614 27.793 3.61932C27.0768 3.0625 26.2826 2.55871 25.4102 2.10795C24.5378 1.6572 23.6198 1.27936 22.6562 0.974432C21.6927 0.669508 20.6771 0.430871 19.6094 0.258523C18.5417 0.0861742 17.4479 0 16.3281 0C13.3594 0 10.625 0.550189 8.125 1.65057C5.625 2.75095 3.64583 4.25568 2.1875 6.16477C0.729167 8.07386 0 10.1553 0 12.4091C0 14.6629 0.546875 16.8106 1.64062 18.8523C2.73438 20.8939 4.3099 22.4451 6.36719 23.5057V23.5852C6.36719 24.7519 5.65104 26.5814 4.21875 29.0739H4.25781C4.20573 29.1799 4.17969 29.2992 4.17969 29.4318C4.17969 29.5114 4.1862 29.5843 4.19922 29.6506C4.21224 29.7169 4.23177 29.7831 4.25781 29.8494C4.28385 29.9157 4.31641 29.9754 4.35547 30.0284C4.39453 30.0814 4.4401 30.1278 4.49219 30.1676C4.54427 30.2074 4.60286 30.2405 4.66797 30.267L4.86328 30.3466L5.07812 30.3864C5.10417 30.3864 5.14974 30.3797 5.21484 30.3665L5.3125 30.3466H5.35156C6.08073 30.2405 6.93359 29.9555 7.91016 29.4915C8.88672 29.0275 9.78516 28.517 10.6055 27.9602C11.4258 27.4034 12.1419 26.8797 12.7539 26.3892C13.3659 25.8987 13.763 25.5341 13.9453 25.2955C14.1276 25.322 14.2969 25.3485 14.4531 25.375C14.6094 25.4015 14.7591 25.4148 14.9023 25.4148H16.6016ZM12.9297 22.6705L11.3281 24.0227C11.1198 24.2879 10.6641 24.7055 9.96094 25.2756C9.25781 25.8456 8.58073 26.3295 7.92969 26.7273C8.1901 26.0114 8.38542 25.3816 8.51562 24.8381C8.64583 24.2945 8.72396 23.9432 8.75 23.7841V23.5057L8.86719 21.9545L7.5 21.2386C5.85938 20.3902 4.61589 19.1506 3.76953 17.5199C2.92318 15.8892 2.5 14.1856 2.5 12.4091C2.5 10.6061 3.11849 8.94886 4.35547 7.4375C5.59245 5.92614 7.27214 4.73295 9.39453 3.85795C11.5169 2.98295 13.8281 2.54545 16.3281 2.54545C18.8281 2.54545 21.1263 2.98295 23.2227 3.85795C25.319 4.73295 26.9727 5.92614 28.1836 7.4375C29.3945 8.94886 30 10.6061 30 12.4091C30 13.8939 29.6615 15.2926 28.9844 16.6051C28.3073 17.9176 27.3828 19.0313 26.2109 19.946C25.0391 20.8608 23.6263 21.5833 21.9727 22.1136C20.319 22.6439 18.5547 22.9091 16.6797 22.9091C15.8984 22.9356 15.1042 22.8958 14.2969 22.7898L12.9297 22.6705ZM40 22.6705C40 19.1439 38.4635 16.4659 35.3906 14.6364C35.3125 15.4053 35.1042 16.3201 34.7656 17.3807C35.8073 18.1231 36.5234 18.8987 36.9141 19.7074C37.3047 20.5161 37.5 21.5038 37.5 22.6705C37.5 23.3599 37.4219 24.0028 37.2656 24.5994C37.1094 25.196 36.862 25.7528 36.5234 26.2699C36.1849 26.7869 35.7487 27.2642 35.2148 27.7017C34.681 28.1392 34.0495 28.5568 33.3203 28.9545L32.1094 29.5511C32.1875 31.7254 32.2917 33.0909 32.4219 33.6477C31.9531 33.303 31.5234 32.9583 31.1328 32.6136C30.7422 32.2689 30.4297 31.964 30.1953 31.6989C29.9609 31.4337 29.7591 31.1951 29.5898 30.983C29.4206 30.7708 29.2969 30.5985 29.2188 30.4659L29.1406 30.3068L27.8125 30.5057C27.6562 30.5322 27.4219 30.5521 27.1094 30.5653C26.7969 30.5786 26.5104 30.5852 26.25 30.5852H25.8984C22.6432 30.5852 19.9609 29.75 17.8516 28.0795H14.2969L14.2578 28.1193C14.7526 28.7292 15.3125 29.2926 15.9375 29.8097C16.5625 30.3267 17.2396 30.7907 17.9688 31.2017C18.6979 31.6127 19.4792 31.964 20.3125 32.2557C21.1458 32.5474 22.0312 32.7661 22.9688 32.9119C23.9062 33.0578 24.8828 33.1307 25.8984 33.1307H26.6406C27.1875 33.1307 27.6953 33.1042 28.1641 33.0511C28.737 33.714 29.7135 34.5758 31.0938 35.6364C32.474 36.697 33.75 37.3333 34.9219 37.5455H35.1562C35.3906 37.5455 35.5859 37.4659 35.7422 37.3068C35.8984 37.1477 35.9766 36.9489 35.9766 36.7102C35.9766 36.6042 35.9505 36.4981 35.8984 36.392C35.7682 36.1799 35.625 35.8617 35.4688 35.4375C35.3125 35.0133 35.1693 34.5625 35.0391 34.0852C34.9089 33.608 34.7982 33.1108 34.707 32.5938C34.6159 32.0767 34.5703 31.6193 34.5703 31.2216V31.142C38.1901 29.233 40 26.4091 40 22.6705Z" fill="#211710"/>
</svg>
