<svg width="40" height="26" viewBox="0 0 40 26" fill="none" xmlns="http://www.w3.org/2000/svg">
<path d="M36.25 0H3.75C3.07292 0 2.44792 0.16731 1.875 0.50193C1.30208 0.836551 0.846354 1.287 0.507812 1.85328C0.169271 2.41956 0 3.03732 0 3.70656V22.2394C0 23.269 0.364583 24.1441 1.09375 24.8649C1.82292 25.5856 2.70833 25.9459 3.75 25.9459H36.25C37.2917 25.9459 38.1771 25.5856 38.9062 24.8649C39.6354 24.1441 40 23.269 40 22.2394V3.70656C40 3.03732 39.8307 2.41956 39.4922 1.85328C39.1536 1.287 38.6979 0.836551 38.125 0.50193C37.5521 0.16731 36.9271 0 36.25 0ZM3.75 2.47104H36.25C36.5885 2.47104 36.8815 2.59331 37.1289 2.83784C37.3763 3.08237 37.5 3.37194 37.5 3.70656V6.17761H2.5V3.70656C2.5 3.37194 2.6237 3.08237 2.87109 2.83784C3.11849 2.59331 3.41146 2.47104 3.75 2.47104ZM36.25 23.4749H3.75C3.41146 23.4749 3.11849 23.3526 2.87109 23.1081C2.6237 22.8636 2.5 22.574 2.5 22.2394V11.1197H37.5V22.2394C37.5 22.574 37.3763 22.8636 37.1289 23.1081C36.8815 23.3526 36.5885 23.4749 36.25 23.4749Z" fill="#211710"/>
</svg>
