<svg width="24" height="15" viewBox="0 0 24 15" fill="none" xmlns="http://www.w3.org/2000/svg">
<path d="M21.4638 0H2.22039C1.81949 0 1.44942 0.0967262 1.1102 0.290179C0.77097 0.483631 0.501131 0.744048 0.300678 1.07143C0.100226 1.39881 0 1.75595 0 2.14286V12.8571C0 13.4524 0.215872 13.9583 0.647615 14.375C1.07936 14.7917 1.60362 15 2.22039 15H21.4638C22.0806 15 22.6049 14.7917 23.0366 14.375C23.4683 13.9583 23.6842 13.4524 23.6842 12.8571V2.14286C23.6842 1.75595 23.584 1.39881 23.3835 1.07143C23.1831 0.744048 22.9132 0.483631 22.574 0.290179C22.2348 0.0967262 21.8647 0 21.4638 0ZM2.22039 1.42857H21.4638C21.6643 1.42857 21.8377 1.49926 21.9842 1.64063C22.1307 1.78199 22.2039 1.9494 22.2039 2.14286V3.57143H1.48026V2.14286C1.48026 1.9494 1.55351 1.78199 1.69999 1.64063C1.84647 1.49926 2.01994 1.42857 2.22039 1.42857ZM21.4638 13.5714H2.22039C2.01994 13.5714 1.84647 13.5007 1.69999 13.3594C1.55351 13.218 1.48026 13.0506 1.48026 12.8571V6.42857H22.2039V12.8571C22.2039 13.0506 22.1307 13.218 21.9842 13.3594C21.8377 13.5007 21.6643 13.5714 21.4638 13.5714Z" fill="#BEB8B2"/>
</svg>
