<svg width="41" height="40" viewBox="0 0 41 40" fill="none" xmlns="http://www.w3.org/2000/svg">
<path d="M39.8102 11.5234L34.3415 1.09375C34.1852 0.78125 33.9248 0.520833 33.5602 0.3125C33.1957 0.104167 32.8441 0 32.5056 0H7.50557C7.16703 0 6.81547 0.104167 6.45089 0.3125C6.0863 0.520833 5.82589 0.78125 5.66964 1.09375L0.200893 11.3281C0.0446428 11.6406 -0.0204613 12.0052 0.00558035 12.4219C0.031622 12.8385 0.148809 13.1771 0.357143 13.4375L19.1071 39.6094C19.3155 39.8698 19.5629 40 19.8493 40C19.9795 40 20.1097 39.9674 20.2399 39.9023C20.3701 39.8372 20.4873 39.7396 20.5915 39.6094L39.654 13.6719C40.0707 13.0729 40.1488 12.4219 39.8884 11.7188C39.8623 11.6406 39.8363 11.5755 39.8102 11.5234ZM36.8024 11.25H30.1227L32.8181 3.55469L36.8024 11.25ZM22.4665 2.5H30.5134L28.0134 9.64844L22.4665 2.5ZM26.0993 11.25H14.4978L19.9665 3.35938L26.0993 11.25ZM12.2712 10.0391L9.7712 2.5H17.5446L12.2712 10.0391ZM26.6071 13.75L19.8884 32.9688L13.4821 13.75H26.6071ZM17.0759 32.4609L3.63839 13.75H10.8649L17.0759 32.4609ZM29.2634 13.75H36.4899L22.7009 32.5L29.2634 13.75ZM7.34932 3.20312L10.0446 11.25H3.09152L7.34932 3.20312Z" fill="#211710"/>
</svg>
