<svg width="34" height="34" viewBox="0 0 34 34" fill="none" xmlns="http://www.w3.org/2000/svg">
<g clip-path="url(#clip0)">
<path d="M30.4406 4.26991C26.6024 1.04257 20.6723 1.52733 17 5.26601C13.3277 1.52733 7.39766 1.03593 3.55938 4.26991C-1.43437 8.47343 -0.703899 15.3266 2.85548 18.959L14.5031 30.8258C15.1672 31.5031 16.057 31.8816 17 31.8816C17.9496 31.8816 18.8328 31.5098 19.4969 30.8324L31.1445 18.9656C34.6973 15.3332 35.441 8.48007 30.4406 4.26991ZM28.8734 16.7211L17.2258 28.5879C17.0664 28.7473 16.9336 28.7473 16.7742 28.5879L5.12657 16.7211C2.70274 14.2508 2.21134 9.57577 5.61134 6.71366C8.19454 4.54218 12.1789 4.86757 14.6758 7.41093L17 9.78163L19.3242 7.41093C21.8344 4.85429 25.8188 4.54218 28.3887 6.70702C31.782 9.56913 31.2774 14.2707 28.8734 16.7211Z" fill="#211710"/>
</g>
<defs>
<clipPath id="clip0">
<rect width="34" height="34" fill="white"/>
</clipPath>
</defs>
</svg>
