<svg width="20" height="20" viewBox="0 0 20 20" fill="none" xmlns="http://www.w3.org/2000/svg">
<path d="M9.90234 0C11.569 0 12.9297 0.0195312 13.9844 0.0585938C14.8828 0.0976562 15.6836 0.253906 16.3867 0.527344C17.0638 0.78776 17.6497 1.16536 18.1445 1.66016C18.6393 2.15495 19.0169 2.74089 19.2773 3.41797C19.5508 4.12109 19.707 4.92188 19.7461 5.82031C19.7852 6.875 19.8047 8.23568 19.8047 9.90234C19.8047 11.569 19.7852 12.9297 19.7461 13.9844C19.707 14.8828 19.5508 15.6836 19.2773 16.3867C19.0169 17.0638 18.6393 17.6497 18.1445 18.1445C17.6497 18.6393 17.0638 19.0169 16.3867 19.2773C15.6836 19.5508 14.8828 19.707 13.9844 19.7461C12.9297 19.7852 11.569 19.8047 9.90234 19.8047C8.23568 19.8047 6.875 19.7852 5.82031 19.7461C4.92188 19.707 4.12109 19.5508 3.41797 19.2773C2.74089 19.0169 2.15495 18.6393 1.66016 18.1445C1.16536 17.6497 0.78776 17.0638 0.527344 16.3867C0.253906 15.6836 0.0976562 14.8828 0.0585938 13.9844C0.0195312 12.9297 0 11.569 0 9.90234C0 8.23568 0.0195312 6.875 0.0585938 5.82031C0.0976562 4.92188 0.253906 4.12109 0.527344 3.41797C0.78776 2.74089 1.16536 2.15495 1.66016 1.66016C2.15495 1.16536 2.74089 0.78776 3.41797 0.527344C4.12109 0.253906 4.92188 0.0976562 5.82031 0.0585938C6.875 0.0195312 8.23568 0 9.90234 0ZM9.90234 1.28906C8.17057 1.28906 6.75781 1.30859 5.66406 1.34766C4.96094 1.3737 4.3099 1.4974 3.71094 1.71875C2.77344 2.10938 2.10938 2.77344 1.71875 3.71094C1.4974 4.3099 1.3737 4.96094 1.34766 5.66406C1.30859 6.75781 1.28906 8.17057 1.28906 9.90234C1.28906 11.6341 1.30859 13.0469 1.34766 14.1406C1.3737 14.8438 1.4974 15.4948 1.71875 16.0938C2.10938 17.0312 2.77344 17.6953 3.71094 18.0859C4.3099 18.3073 4.96094 18.431 5.66406 18.457C6.75781 18.4961 8.17057 18.5156 9.90234 18.5156C11.6341 18.5156 13.0469 18.4961 14.1406 18.457C14.8438 18.431 15.4948 18.3073 16.0938 18.0859C17.0312 17.6953 17.6953 17.0312 18.0859 16.0938C18.3073 15.4948 18.431 14.8438 18.457 14.1406C18.4961 13.0469 18.5156 11.6341 18.5156 9.90234C18.5156 8.17057 18.4961 6.75781 18.457 5.66406C18.431 4.96094 18.3073 4.3099 18.0859 3.71094C17.6953 2.77344 17.0312 2.10938 16.0938 1.71875C15.4948 1.4974 14.8438 1.3737 14.1406 1.34766C13.0469 1.30859 11.6341 1.28906 9.90234 1.28906ZM9.90234 13.8672C10.9961 13.8672 11.9303 13.4798 12.7051 12.7051C13.4798 11.9303 13.8672 10.9961 13.8672 9.90234C13.8672 8.80859 13.4798 7.87435 12.7051 7.09961C11.9303 6.32487 10.9961 5.9375 9.90234 5.9375C8.80859 5.9375 7.87435 6.32487 7.09961 7.09961C6.32487 7.87435 5.9375 8.80859 5.9375 9.90234C5.9375 10.9961 6.32487 11.9303 7.09961 12.7051C7.87435 13.4798 8.80859 13.8672 9.90234 13.8672ZM9.90234 4.82422C11.3086 4.82422 12.5065 5.31901 13.4961 6.30859C14.4857 7.29818 14.9805 8.49609 14.9805 9.90234C14.9805 11.3086 14.4857 12.5065 13.4961 13.4961C12.5065 14.4857 11.3086 14.9805 9.90234 14.9805C8.49609 14.9805 7.29818 14.4857 6.30859 13.4961C5.31901 12.5065 4.82422 11.3086 4.82422 9.90234C4.82422 8.49609 5.31901 7.29818 6.30859 6.30859C7.29818 5.31901 8.49609 4.82422 9.90234 4.82422ZM16.3867 4.62891C16.3867 4.95443 16.2695 5.23112 16.0352 5.45898C15.8008 5.68685 15.5143 5.80078 15.1758 5.80078C14.8503 5.80078 14.5736 5.68685 14.3457 5.45898C14.1178 5.23112 14.0039 4.95443 14.0039 4.62891C14.0039 4.29036 14.1178 4.00391 14.3457 3.76953C14.5736 3.53516 14.8503 3.41797 15.1758 3.41797C15.5013 3.41797 15.7845 3.53841 16.0254 3.7793C16.2663 4.02018 16.3867 4.30339 16.3867 4.62891Z" fill="#EEE7DF"/>
</svg>
