<svg width="16" height="18" viewBox="0 0 16 18" fill="none" xmlns="http://www.w3.org/2000/svg">
<path d="M4.22564 15.0293H0.50625C0.437373 15.0293 0.368495 15.0146 0.299618 14.9854C0.23074 14.9561 0.167602 14.9121 0.110204 14.8535C0.0183674 14.7246 -0.0160714 14.5781 0.00688776 14.4141L2.38316 1.19531C2.45204 0.832031 2.62137 0.541992 2.89114 0.325195C3.16091 0.108398 3.47947 0 3.84681 0H9.56365C10.7116 0 11.6386 0.342773 12.3446 1.02832C13.0506 1.71387 13.4036 2.61328 13.4036 3.72656C13.4036 4.11328 13.3577 4.53223 13.2658 4.9834C13.174 5.43457 13.042 5.90332 12.8698 6.38965C12.6976 6.87598 12.468 7.34473 12.181 7.7959C11.894 8.24707 11.5668 8.65137 11.1995 9.00879C10.8321 9.36621 10.3902 9.65039 9.8736 9.86133C9.35702 10.0723 8.806 10.1777 8.22054 10.1777H5.72373L4.725 14.6426C4.70204 14.7129 4.6676 14.7803 4.62169 14.8447C4.57577 14.9092 4.51837 14.9561 4.44949 14.9854C4.38061 15.0146 4.306 15.0293 4.22564 15.0293ZM1.12615 13.9922H3.81237L4.82832 9.54492C4.85128 9.42773 4.90868 9.33105 5.00051 9.25488C5.09235 9.17871 5.19567 9.14062 5.31046 9.14062H8.22054C8.57641 9.14062 8.91506 9.08789 9.23649 8.98242C9.55791 8.87695 9.8449 8.7334 10.0975 8.55176C10.35 8.37012 10.5882 8.15625 10.8121 7.91016C11.0359 7.66406 11.2282 7.40039 11.3889 7.11914C11.5496 6.83789 11.696 6.54785 11.828 6.24902C11.96 5.9502 12.0662 5.64844 12.1466 5.34375C12.2269 5.03906 12.2872 4.75195 12.3274 4.48242C12.3675 4.21289 12.3876 3.96094 12.3876 3.72656C12.3876 3.31641 12.3216 2.94434 12.1896 2.61035C12.0576 2.27637 11.8682 1.99512 11.6214 1.7666C11.3746 1.53809 11.0761 1.35938 10.726 1.23047C10.3758 1.10156 9.9884 1.03711 9.56365 1.03711H3.84681C3.58278 1.03711 3.42781 1.16016 3.38189 1.40625L1.12615 13.9922ZM5.98202 18H2.26263C2.11339 18 1.98712 17.9385 1.8838 17.8154C1.78049 17.6924 1.74031 17.5547 1.76327 17.4023L2.24541 14.625C2.26837 14.4844 2.33725 14.373 2.45204 14.291C2.56684 14.209 2.69311 14.1797 2.83087 14.2031C2.92271 14.2148 3.00306 14.2529 3.07194 14.3174C3.14082 14.3818 3.19248 14.4551 3.22692 14.5371C3.26135 14.6191 3.26709 14.707 3.24413 14.8008L2.88253 16.9629H5.56875L6.53304 12.4629C6.556 12.3809 6.59044 12.3105 6.63636 12.252C6.68227 12.1934 6.73967 12.1465 6.80855 12.1113C6.87743 12.0762 6.95204 12.0586 7.0324 12.0586H9.94248C10.3443 12.0586 10.726 11.9883 11.0876 11.8477C11.4492 11.707 11.7649 11.5225 12.0346 11.2939C12.3044 11.0654 12.557 10.7988 12.7923 10.4941C13.0276 10.1895 13.2228 9.87012 13.3778 9.53613C13.5327 9.20215 13.6647 8.8623 13.7738 8.5166C13.8829 8.1709 13.9632 7.83984 14.0149 7.52344C14.0665 7.20703 14.0924 6.91406 14.0924 6.64453C14.0924 5.44922 13.6102 4.63477 12.6459 4.20117C12.5082 4.14258 12.4135 4.0459 12.3618 3.91113C12.3101 3.77637 12.313 3.64453 12.3704 3.51562C12.4278 3.38672 12.5225 3.2959 12.6545 3.24316C12.7866 3.19043 12.9157 3.19336 13.042 3.25195C13.4897 3.45117 13.8685 3.71191 14.1785 4.03418C14.4884 4.35645 14.7209 4.74023 14.8758 5.18555C15.0308 5.63086 15.1083 6.11719 15.1083 6.64453C15.1083 7.11328 15.048 7.62305 14.9275 8.17383C14.807 8.72461 14.6089 9.29297 14.3334 9.87891C14.0579 10.4648 13.7279 10.9951 13.3433 11.4697C12.9587 11.9443 12.4709 12.334 11.8797 12.6387C11.2885 12.9434 10.6427 13.0957 9.94248 13.0957H7.44567L6.48138 17.5957C6.45842 17.7129 6.40102 17.8096 6.30919 17.8857C6.21735 17.9619 6.10829 18 5.98202 18ZM6.65358 7.25977H5.65485C5.49414 7.25977 5.36212 7.19531 5.2588 7.06641C5.23584 7.04297 5.21576 7.01367 5.19854 6.97852C5.18132 6.94336 5.16697 6.9082 5.15549 6.87305C5.14401 6.83789 5.13827 6.7998 5.13827 6.75879V6.64453L5.80982 2.86523C5.8213 2.79492 5.84426 2.7334 5.8787 2.68066C5.91314 2.62793 5.95045 2.58398 5.99063 2.54883C6.03081 2.51367 6.0796 2.48438 6.13699 2.46094C6.19439 2.4375 6.25179 2.42578 6.30919 2.42578H7.92781C8.55919 2.42578 9.02985 2.61914 9.3398 3.00586C9.68419 3.41602 9.79325 3.99609 9.66697 4.74609C9.58661 5.33203 9.42877 5.80957 9.19344 6.17871C8.95811 6.54785 8.63381 6.82031 8.22054 6.99609C7.80728 7.17188 7.28495 7.25977 6.65358 7.25977ZM6.25753 6.22266H6.65358C7.36531 6.22266 7.85893 6.09668 8.13444 5.84473C8.40995 5.59277 8.58789 5.16797 8.66824 4.57031C8.73712 4.13672 8.70268 3.83789 8.56493 3.67383C8.51901 3.62695 8.45874 3.58594 8.38412 3.55078C8.30951 3.51562 8.23776 3.49219 8.16888 3.48047C8.1 3.46875 8.01965 3.46289 7.92781 3.46289H6.73967L6.25753 6.22266Z" fill="#BEB8B2"/>
</svg>
