<svg width="40" height="34" viewBox="0 0 40 34" fill="none" xmlns="http://www.w3.org/2000/svg">
<path d="M37.5 0H2.5C1.82292 0 1.23698 0.248117 0.742188 0.744351C0.247396 1.24059 0 1.82823 0 2.50729V31.3411C0 32.0202 0.247396 32.6078 0.742188 33.104C1.23698 33.6003 1.82292 33.8484 2.5 33.8484H37.5C38.1771 33.8484 38.763 33.6003 39.2578 33.104C39.7526 32.6078 40 32.0202 40 31.3411V2.50729C40 2.06329 39.8893 1.64541 39.668 1.25364C39.4466 0.86188 39.1406 0.554999 38.75 0.332999C38.3594 0.111 37.9427 0 37.5 0ZM37.5 31.3411H2.5V23.9759L12.5391 14.221L22.8906 24.5636C23.099 24.8248 23.3659 24.9488 23.6914 24.9358C24.0169 24.9227 24.3229 24.8117 24.6094 24.6028L29.1797 20.4501L37.3828 28.9513C37.4089 28.9513 37.4479 28.9775 37.5 29.0297V31.3411ZM37.5 25.4646L30.1562 17.9036C29.9219 17.6947 29.6549 17.5771 29.3555 17.551C29.056 17.5249 28.776 17.6163 28.5156 17.8253L23.7891 21.9388L13.4766 11.6746C13.2422 11.3873 12.9427 11.2306 12.5781 11.2044C12.2135 11.1783 11.901 11.2959 11.6406 11.557L2.5 20.4501V2.50729H37.5V25.4646ZM28.75 12.5364C29.1927 12.5364 29.6094 12.4254 30 12.2034C30.3906 11.9814 30.6966 11.6811 30.918 11.3024C31.1393 10.9237 31.25 10.4993 31.25 10.0292C31.25 9.3501 31.0026 8.76245 30.5078 8.26622C30.013 7.76998 29.4271 7.52186 28.75 7.52186C28.0729 7.52186 27.487 7.76998 26.9922 8.26622C26.4974 8.76245 26.25 9.35663 26.25 10.0487C26.25 10.7409 26.4974 11.3285 26.9922 11.8117C27.487 12.2949 28.0729 12.5364 28.75 12.5364Z" fill="#211710"/>
</svg>
