<svg width="56" height="55" viewBox="0 0 56 55" fill="none" xmlns="http://www.w3.org/2000/svg">
<path d="M50.4788 3.4375C50.9477 3.4375 51.3444 3.49121 51.669 3.59863C51.7412 3.81348 51.7862 4.08203 51.8043 4.4043C51.8223 4.72656 51.8043 5.13835 51.7502 5.63965C51.6961 6.14095 51.4977 6.69596 51.1551 7.30469C50.8124 7.91341 50.3526 8.50423 49.7755 9.07715L37.2784 21.4844L37.3866 22.9883C37.5309 25.7096 37.8194 30.3646 38.2522 36.9531C38.5768 42.7181 38.7571 45.6901 38.7932 45.8691C38.7932 46.084 38.7211 46.2809 38.5768 46.46C38.3243 46.7106 37.9997 47.0687 37.603 47.5342C37.2062 47.9997 36.7734 48.4831 36.3046 48.9844C34.1766 43.3626 32.4094 38.5824 31.0028 34.6436L29.1093 29.5947L25.2682 33.4082L18.2351 40.1221L17.2072 41.1426V42.4854C17.1712 43.1657 17.1712 44.777 17.2072 47.3193V50.2197L17.2613 50.2734L17.3695 50.3271C17.1531 49.9691 17.0089 49.7184 16.9367 49.5752L16.6121 49.0918C14.5203 45.7975 13.294 43.846 12.9333 43.2373L12.4464 42.5391L11.7431 42.0557C9.29057 40.5876 6.85607 39.0837 4.43959 37.5439C4.47566 37.5439 4.51173 37.5798 4.54779 37.6514L4.60189 37.7051H8.25365L8.76761 37.7319L9.33566 37.7588H12.4464L13.853 37.7051L14.8268 36.7383L21.6434 29.7559L25.4846 25.9424L20.3991 24.1162C16.4679 22.6839 11.6169 20.8936 5.8462 18.7451C6.35113 18.2438 6.82902 17.7962 7.27985 17.4023C7.73069 17.0085 8.10037 16.7041 8.3889 16.4893L8.76761 16.2744H8.87581C9.12827 16.2744 12.3743 16.4714 18.6138 16.8652C25.4305 17.3307 29.9208 17.6172 32.0848 17.7246L33.6537 17.832L46.1508 5.4248C47.4853 4.09993 48.9279 3.4375 50.4788 3.4375ZM50.4788 0C49.3607 0 48.2156 0.241699 47.0435 0.725098C45.8713 1.2085 44.7622 1.9694 43.7163 3.00781L32.3012 14.2871C31.147 14.2155 29.5511 14.117 27.5133 13.9917C25.4755 13.8664 23.4468 13.741 21.427 13.6157C19.4073 13.4904 17.4597 13.3651 15.5842 13.2397C13.7088 13.1144 12.1669 13.016 10.9587 12.9443C9.75042 12.8727 9.11024 12.8369 9.03811 12.8369H8.76761C8.5512 12.8369 8.32579 12.8548 8.09135 12.8906C7.85692 12.9264 7.55937 13.016 7.1987 13.1592C6.83803 13.3024 6.4954 13.5173 6.1708 13.8037L2.22149 17.3486C1.53622 18.029 1.24768 18.763 1.35588 19.5508C1.42802 20.3385 1.89689 20.9115 2.76249 21.2695C5.0347 22.1647 10.5168 24.1878 19.2089 27.3389L12.3923 34.3213H11.3103C10.5529 34.3213 9.35369 34.3123 7.71265 34.2944C6.07161 34.2765 5.07076 34.2676 4.71009 34.2676H3.92564L3.65514 34.2944L3.30349 34.375L2.87069 34.563L2.32969 34.8584L1.70754 35.2612L0.977184 35.8252L0.814883 35.9863C0.309949 36.5234 0.039448 37.0964 0.00338126 37.7051C-0.0326855 38.3138 0.219782 38.833 0.760783 39.2627C1.55425 39.9072 4.61993 41.8229 9.95781 45.0098C10.3545 45.6543 11.671 47.7311 13.9071 51.2402C14.917 52.8874 15.458 53.7646 15.5301 53.8721C15.8908 54.445 16.4138 54.7493 17.099 54.7852H17.1531C17.8023 54.7852 18.4335 54.4808 19.0466 53.8721C19.2991 53.5856 19.5245 53.3081 19.7229 53.0396C19.9213 52.771 20.0745 52.5293 20.1827 52.3145L20.4532 51.7773L20.5885 51.3208L20.6426 50.9717V50.7031L20.6155 50.542C20.6516 50.1839 20.6606 48.9486 20.6426 46.8359C20.6246 44.7233 20.6336 43.3089 20.6696 42.5928L27.7027 35.8252C28.5322 38.0811 29.7044 41.25 31.2192 45.332C32.734 49.4141 33.5815 51.652 33.7619 52.0459C34.0865 52.8695 34.6455 53.335 35.439 53.4424H35.7095C36.0341 53.4424 36.3677 53.3618 36.7103 53.2007C37.053 53.0396 37.3686 52.8158 37.6571 52.5293C37.8374 52.3503 38.0809 52.0996 38.3874 51.7773C38.694 51.4551 39.1629 50.9448 39.794 50.2466C40.4252 49.5483 40.9031 49.0023 41.2277 48.6084C41.949 47.749 42.2736 46.7822 42.2015 45.708C42.2015 45.6364 42.1203 44.1683 41.958 41.3037C41.7957 38.4391 41.5974 35.0822 41.3629 31.2329C41.1285 27.3836 40.9572 24.5817 40.849 22.8271L52.2641 11.4941C53.2019 10.5273 53.9322 9.49788 54.4552 8.40576C54.9781 7.31364 55.2577 6.30208 55.2937 5.37109C55.3298 4.4401 55.2486 3.59863 55.0503 2.84668C54.8519 2.09473 54.5544 1.53971 54.1576 1.18164C53.3642 0.39388 52.1379 0 50.4788 0Z" fill="#211710"/>
</svg>
