<svg width="44" height="55" viewBox="0 0 44 55" fill="none" xmlns="http://www.w3.org/2000/svg">
<path d="M42.9423 7.68066C42.625 7.39421 42.2636 7.17041 41.8582 7.00928C41.4527 6.84814 41.0385 6.76758 40.6154 6.76758H40.4038L40.351 6.79443L40.2188 6.82129H38.976C36.4375 6.82129 34.1811 6.57064 32.2067 6.06934C31.1843 5.81868 30.0913 5.31738 28.9279 4.56543C27.7644 3.81348 26.645 2.98096 25.5697 2.06787C24.4944 1.15479 23.9038 0.662435 23.7981 0.59082C23.234 0.19694 22.617 0 21.9471 0C21.5946 0 21.2596 0.0447591 20.9423 0.134277C20.625 0.223796 20.3253 0.375977 20.0433 0.59082L19.7788 0.859375L19.0649 1.53076L18.0337 2.4707L16.7115 3.54492L15.2043 4.56543L13.5649 5.45166L11.8462 6.06934C9.8718 6.57064 7.59776 6.82129 5.02404 6.82129H3.88702L3.70192 6.79443L3.59615 6.76758H3.38462C2.96154 6.76758 2.54728 6.84814 2.14183 7.00928C1.73638 7.17041 1.375 7.41211 1.05769 7.73438C0.352564 8.41471 0 9.23828 0 10.2051V18.7988C0 23.1315 0.387821 27.124 1.16346 30.7764C1.9391 34.4287 2.89984 37.4455 4.04567 39.8267C5.19151 42.2078 6.55769 44.3563 8.14423 46.272C9.73077 48.1877 11.1939 49.6379 12.5337 50.6226C13.8734 51.6073 15.2748 52.4577 16.738 53.1738C18.2011 53.89 19.2324 54.3286 19.8317 54.4897C20.4311 54.6509 20.9247 54.7673 21.3125 54.8389C21.4183 54.8747 21.524 54.8926 21.6298 54.8926H21.9471C22.1234 54.8926 22.3173 54.8747 22.5288 54.8389C22.7756 54.8031 23.0929 54.7314 23.4808 54.624C23.8686 54.5166 24.5649 54.266 25.5697 53.8721C26.5745 53.4782 27.5529 53.0216 28.5048 52.5024C29.4567 51.9832 30.5673 51.2223 31.8365 50.2197C33.1058 49.2171 34.278 48.0981 35.3534 46.8628C36.4287 45.6274 37.5128 44.0788 38.6058 42.2168C39.6987 40.3548 40.633 38.3317 41.4087 36.1475C42.1843 33.9632 42.8101 31.3761 43.2861 28.3862C43.762 25.3963 44 22.2005 44 18.7988V10.2051C44 9.20247 43.6474 8.361 42.9423 7.68066ZM40.6154 18.7988C40.6154 31.582 37.2308 40.9456 30.4615 46.8896C27.6058 49.3245 24.7676 50.8464 21.9471 51.4551C21.6651 51.4193 21.3037 51.3387 20.863 51.2134C20.4223 51.0881 19.5585 50.7121 18.2716 50.0854C16.9848 49.4588 15.7596 48.7069 14.5962 47.8296C13.4327 46.9523 12.137 45.6543 10.7091 43.9355C9.28125 42.2168 8.05609 40.2743 7.03365 38.1079C6.01122 35.9416 5.14744 33.1844 4.44231 29.8364C3.73718 26.4884 3.38462 22.8092 3.38462 18.7988V10.2051C3.41987 10.2051 3.46394 10.214 3.51683 10.2319C3.56971 10.2498 3.63141 10.2588 3.70192 10.2588H5.02404C7.84455 10.2588 10.4006 9.97233 12.6923 9.39941C14.0673 9.07715 15.5216 8.41471 17.0553 7.41211C18.5889 6.40951 19.7965 5.49642 20.6779 4.67285L21.9471 3.4375C22.2997 3.79557 22.7845 4.25212 23.4014 4.80713C24.0184 5.36214 25.1554 6.18571 26.8125 7.27783C28.4696 8.36995 29.9856 9.07715 31.3606 9.39941C33.6522 9.97233 36.1907 10.2588 38.976 10.2588H39.8221L40.4567 10.2051H40.6154V18.7988ZM29.1923 18.5303C28.8397 18.208 28.4343 18.0469 27.976 18.0469C27.5176 18.0469 27.1122 18.208 26.7596 18.5303L22 23.418L17.1875 18.5303C16.8702 18.208 16.4736 18.0469 15.9976 18.0469C15.5216 18.0469 15.125 18.208 14.8077 18.5303C14.5962 18.7451 14.4551 19.0047 14.3846 19.3091C14.3141 19.6134 14.3141 19.9089 14.3846 20.1953C14.4551 20.4818 14.5962 20.7324 14.8077 20.9473L19.6202 25.835L14.8077 30.7227C14.4904 31.0449 14.3317 31.4388 14.3317 31.9043C14.3317 32.3698 14.4904 32.7726 14.8077 33.1128C15.125 33.453 15.5216 33.623 15.9976 33.623C16.4736 33.623 16.8702 33.4619 17.1875 33.1396L22 28.252L26.7596 33.1396C27.1122 33.4619 27.5176 33.623 27.976 33.623C28.4343 33.623 28.8397 33.4619 29.1923 33.1396C29.7917 32.4951 29.8798 31.7969 29.4567 31.0449C29.351 30.9017 29.2628 30.7943 29.1923 30.7227L24.3798 25.835L29.1923 20.9473C29.4038 20.7324 29.5449 20.4818 29.6154 20.1953C29.6859 19.9089 29.6859 19.6134 29.6154 19.3091C29.5449 19.0047 29.4038 18.7451 29.1923 18.5303Z" fill="#211710"/>
</svg>
