<svg width="40" height="41" viewBox="0 0 40 41" fill="none" xmlns="http://www.w3.org/2000/svg">
<path d="M30.5078 24.1759C30.1953 24.0431 29.8763 24.0365 29.5508 24.1559C29.2253 24.2754 28.9974 24.4945 28.8672 24.8131L28.6914 25.1716L28.2031 25.9681L27.3438 27.1232L26.0938 28.3379L24.4531 29.473L22.4023 30.2895L19.9219 30.6281C19.8958 30.6281 19.8698 30.6347 19.8438 30.648L19.8047 30.6679C19.0755 30.6679 18.3724 30.5882 17.6953 30.4289C17.0182 30.2696 16.4193 30.0506 15.8984 29.7718C15.3776 29.493 14.8893 29.1942 14.4336 28.8756C13.9779 28.557 13.5742 28.2052 13.2227 27.8202C12.8711 27.4352 12.5651 27.0833 12.3047 26.7647C12.0443 26.4461 11.8229 26.1275 11.6406 25.8088C11.4583 25.4902 11.3281 25.2645 11.25 25.1317C11.1719 24.999 11.1198 24.8928 11.0938 24.8131C10.9375 24.4945 10.7031 24.2754 10.3906 24.1559C10.0781 24.0365 9.75911 24.0497 9.43359 24.1958C9.10807 24.3418 8.88672 24.5741 8.76953 24.8928C8.65234 25.2114 8.67188 25.5433 8.82812 25.8885C8.85417 25.9681 8.89974 26.0743 8.96484 26.2071C9.02995 26.3399 9.16667 26.5722 9.375 26.9041C9.58333 27.236 9.79818 27.5679 10.0195 27.8998C10.2409 28.2317 10.5404 28.6101 10.918 29.0349C11.2956 29.4598 11.6927 29.858 12.1094 30.2298C12.526 30.6015 13.0143 30.9732 13.5742 31.345C14.1341 31.7167 14.7201 32.0353 15.332 32.3009C15.944 32.5664 16.6341 32.7854 17.4023 32.958C18.1706 33.1306 18.9583 33.2169 19.7656 33.2169C19.7917 33.2169 19.8438 33.2036 19.9219 33.1771C21.4062 33.1771 22.8125 32.9182 24.1406 32.4004C25.4688 31.8827 26.5234 31.3118 27.3047 30.6878C28.0859 30.0638 28.7956 29.3403 29.4336 28.5172C30.0716 27.694 30.4883 27.1032 30.6836 26.7448C30.8789 26.3863 31.0286 26.0876 31.1328 25.8487C31.2109 25.7424 31.2565 25.6163 31.2695 25.4703C31.2826 25.3242 31.2695 25.1915 31.2305 25.072C31.1914 24.9525 31.1458 24.833 31.0938 24.7135C31.0417 24.5941 30.9635 24.4878 30.8594 24.3949C30.7552 24.302 30.638 24.229 30.5078 24.1759ZM20 0C17.2917 0 14.7005 0.537684 12.2266 1.61305C9.7526 2.68842 7.6237 4.13552 5.83984 5.95435C4.05599 7.77318 2.63672 9.94383 1.58203 12.4663C0.527344 14.9888 0 17.6307 0 20.3922C0 23.1536 0.527344 25.7955 1.58203 28.318C2.63672 30.8405 4.05599 33.0111 5.83984 34.83C7.6237 36.6488 9.7526 38.0959 12.2266 39.1713C14.7005 40.2466 17.2917 40.7843 20 40.7843C22.7083 40.7843 25.2995 40.2466 27.7734 39.1713C30.2474 38.0959 32.3763 36.6488 34.1602 34.83C35.944 33.0111 37.3633 30.8405 38.418 28.318C39.4727 25.7955 40 23.1536 40 20.3922C40 17.6307 39.4727 14.9888 38.418 12.4663C37.3633 9.94383 35.944 7.77318 34.1602 5.95435C32.3763 4.13552 30.2474 2.68842 27.7734 1.61305C25.2995 0.537684 22.7083 0 20 0ZM20 38.2353C18.099 38.2353 16.2565 37.9366 14.4727 37.3392C12.6888 36.7417 11.0807 35.8921 9.64844 34.7901C8.21615 33.6882 6.95964 32.4071 5.87891 30.9467C4.79818 29.4863 3.96484 27.8467 3.37891 26.0279C2.79297 24.209 2.5 22.3305 2.5 20.3922C2.5 17.9759 2.96224 15.6658 3.88672 13.462C4.8112 11.2582 6.05469 9.35968 7.61719 7.76654C9.17969 6.17341 11.0417 4.90554 13.2031 3.96293C15.3646 3.02032 17.6302 2.54902 20 2.54902C22.3698 2.54902 24.6354 3.02032 26.7969 3.96293C28.9583 4.90554 30.8203 6.17341 32.3828 7.76654C33.9453 9.35968 35.1888 11.2582 36.1133 13.462C37.0378 15.6658 37.5 17.9759 37.5 20.3922C37.5 22.8084 37.0378 25.1185 36.1133 27.3223C35.1888 29.5261 33.9453 31.4246 32.3828 33.0178C30.8203 34.6109 28.9583 35.8788 26.7969 36.8214C24.6354 37.764 22.3698 38.2353 20 38.2353ZM13.75 19.1176C14.4271 19.1176 15.0065 18.8654 15.4883 18.3609C15.9701 17.8564 16.2109 17.259 16.2109 16.5686C16.2109 16.1172 16.1003 15.6924 15.8789 15.2941C15.6576 14.8958 15.3581 14.5838 14.9805 14.3581C14.6029 14.1325 14.1927 14.0196 13.75 14.0196C13.0469 14.0196 12.4544 14.2719 11.9727 14.7763C11.4909 15.2808 11.25 15.8783 11.25 16.5686C11.25 17.6042 11.6927 18.3609 12.5781 18.8388C12.9688 19.0247 13.3594 19.1176 13.75 19.1176ZM26.25 19.1176C26.4323 19.1176 26.6146 19.0911 26.7969 19.038C26.9792 18.9849 27.1549 18.9185 27.3242 18.8388C27.4935 18.7592 27.6497 18.6596 27.793 18.5401C27.9362 18.4206 28.0664 18.2879 28.1836 18.1419C28.3008 17.9958 28.3984 17.8431 28.4766 17.6838C28.5547 17.5245 28.6133 17.3453 28.6523 17.1461C28.6914 16.947 28.7109 16.7545 28.7109 16.5686C28.7109 15.8783 28.4701 15.2808 27.9883 14.7763C27.5065 14.2719 26.9206 14.0196 26.2305 14.0196C25.5404 14.0196 24.9544 14.2719 24.4727 14.7763C23.9909 15.2808 23.75 15.8783 23.75 16.5686C23.75 17.259 23.9909 17.8564 24.4727 18.3609C24.9544 18.8654 25.5469 19.1176 26.25 19.1176Z" fill="#211710"/>
</svg>
