<?xml version="1.0" encoding="UTF-8"?>
<svg version="1.1" xmlns="http://www.w3.org/2000/svg" xmlns:xlink="http://www.w3.org/1999/xlink">
<defs>
<clipPath id="clip0"><path fill="#fff" d="M0 0h34v34H0z"/></clipPath>
</defs>
<symbol id="i-basket-full" viewBox="0 0 41 40" fill="none" xmlns="http://www.w3.org/2000/svg"><path d="M40.75 10.786c-.255-.363-.597-.544-1.027-.544H35.7l-8.25-7.016a2.494 2.494 0 00-1.168-.686 2.692 2.692 0 00-1.308 0 2.49 2.49 0 00-1.187.686l-8.09 7.016h-3.3l-2.093-7.137c-.188-.645-.443-1.196-.765-1.653-.322-.457-.664-.78-1.026-.968A4.487 4.487 0 007.566.1 3.302 3.302 0 006.761 0H1.248C.898 0 .604.121.362.363.121.605 0 .914 0 1.29c0 .215.054.424.161.625.107.202.262.357.463.464.201.108.409.161.624.161H6.76a.59.59 0 01.222.04c.067.028.154.075.261.142.108.067.215.195.322.383.108.188.202.43.282.726l7.124 26.21c.08.268.234.49.463.665.228.174.476.262.744.262h17.387c.268 0 .516-.08.744-.242.228-.162.382-.363.463-.605l6.158-18.145c.134-.43.073-.827-.181-1.19zM25.636 5.04l6.117 5.242H19.48l6.158-5.242zm7.043 23.347H17.185L13.08 12.823h24.792L32.68 28.387zm-2.535 5.161c-.886 0-1.644.316-2.274.948a3.11 3.11 0 00-.946 2.278c0 .887.315 1.647.946 2.278.63.632 1.388.948 2.274.948.885 0 1.643-.316 2.274-.948a3.11 3.11 0 00.945-2.278c0-.43-.087-.847-.261-1.25a3.279 3.279 0 00-.684-1.028 3.27 3.27 0 00-1.027-.686 3.103 3.103 0 00-1.247-.262zm-11.591 0c-.59 0-1.134.148-1.63.444a3.247 3.247 0 00-1.167 1.17 3.146 3.146 0 00-.423 1.612c0 .887.315 1.647.946 2.278.63.632 1.388.948 2.274.948.885 0 1.643-.316 2.274-.948a3.11 3.11 0 00.945-2.278c0-1.236-.55-2.164-1.65-2.782a2.951 2.951 0 00-1.57-.444z" fill="#211710"/></symbol>
<symbol id="i-basket" viewBox="0 0 41 40" fill="none" xmlns="http://www.w3.org/2000/svg"><path d="M40.54 10.786c-.254-.363-.594-.544-1.021-.544H12.332L10.25 3.105c-.187-.645-.44-1.196-.76-1.653-.321-.457-.661-.78-1.022-.968A4.45 4.45 0 007.528.1 3.269 3.269 0 006.726 0H1.24c-.347 0-.64.121-.88.363S0 .914 0 1.29c0 .215.053.424.16.625.107.202.26.357.46.464.2.108.408.161.621.161h5.486c.106 0 .206.014.3.04.093.028.22.142.38.343.16.202.294.504.4.908l7.088 26.21c.053.16.14.315.26.463.12.148.26.262.42.343.16.08.334.12.52.12h17.298c.267 0 .513-.08.74-.241.227-.162.38-.363.46-.605l6.127-18.145c.133-.43.073-.827-.18-1.19zm-8.028 17.601H17.097l-4.084-15.564h24.664l-5.165 15.564zm-2.523 5.161c-.88 0-1.635.316-2.262.948a3.117 3.117 0 00-.94 2.278c0 .887.313 1.647.94 2.278.627.632 1.381.948 2.262.948s1.635-.316 2.262-.948c.628-.631.941-1.39.941-2.278 0-.887-.313-1.646-.94-2.278-.628-.632-1.382-.948-2.263-.948zm-11.531 0c-.587 0-1.128.148-1.622.444a3.24 3.24 0 00-1.16 1.17 3.16 3.16 0 00-.421 1.612c0 .887.313 1.647.94 2.278.628.632 1.382.948 2.263.948.88 0 1.635-.316 2.262-.948.628-.631.941-1.39.941-2.278 0-.215-.02-.43-.06-.645a2.895 2.895 0 00-.48-1.15 3.492 3.492 0 00-.881-.886 2.84 2.84 0 00-1.141-.484 3.439 3.439 0 00-.641-.06z" fill="#211710"/></symbol>
<symbol id="i-calculator" viewBox="0 0 40 40" fill="none" xmlns="http://www.w3.org/2000/svg"><path d="M37.5 0h-35C1.823 0 1.237.247.742.742.247 1.237 0 1.822 0 2.5v35c0 .677.247 1.263.742 1.758.495.495 1.08.742 1.758.742h35c.677 0 1.263-.247 1.758-.742.495-.495.742-1.08.742-1.758v-35c0-.443-.11-.86-.332-1.25a2.392 2.392 0 00-.918-.918A2.496 2.496 0 0037.5 0zm0 37.5h-35v-35h35v35zM8.75 13.75h2.5v2.5c0 .365.124.664.371.898.247.235.54.352.879.352.338 0 .632-.117.879-.352.247-.234.371-.533.371-.898v-2.5h2.5c.338 0 .631-.117.879-.352a1.16 1.16 0 00.371-.878c0-.352-.124-.652-.371-.899a1.201 1.201 0 00-.879-.371h-2.5v-2.5c0-.339-.124-.632-.371-.879A1.201 1.201 0 0012.5 7.5c-.338 0-.632.124-.879.371s-.371.54-.371.879v2.5h-2.5c-.339 0-.632.124-.879.371a1.224 1.224 0 00-.371.899c0 .351.124.644.371.878.247.235.54.352.879.352zm8.184 9.355a1.224 1.224 0 00-.899-.37c-.351 0-.644.117-.879.35L12.5 25.743l-2.656-2.656a1.193 1.193 0 00-.88-.352c-.35 0-.65.124-.898.371-.247.248-.37.54-.37.88 0 .338.13.624.39.859l2.656 2.656-2.656 2.656a1.31 1.31 0 00-.332.567 1.087 1.087 0 000 .644c.065.209.176.39.332.547a.97.97 0 00.39.293 1.257 1.257 0 00.977 0 .97.97 0 00.39-.293l2.657-2.617 2.656 2.617a.97.97 0 00.39.293 1.257 1.257 0 00.977 0 .97.97 0 00.391-.293c.599-.573.599-1.159 0-1.758L14.258 27.5l2.656-2.656c.26-.235.39-.521.39-.86 0-.338-.123-.631-.37-.879zm6.816-9.355h7.5c.338 0 .631-.117.879-.352a1.16 1.16 0 00.371-.878c0-.352-.124-.652-.371-.899a1.201 1.201 0 00-.879-.371h-7.5c-.338 0-.631.124-.879.371a1.224 1.224 0 00-.371.899c0 .351.124.644.371.878.248.235.54.352.879.352zm0 12.5h7.5c.338 0 .631-.117.879-.352a1.16 1.16 0 00.371-.878c0-.352-.124-.651-.371-.899a1.201 1.201 0 00-.879-.371h-7.5c-.338 0-.631.124-.879.371a1.224 1.224 0 00-.371.899c0 .351.124.644.371.878.248.235.54.352.879.352zm0 5h7.5c.338 0 .631-.117.879-.352a1.16 1.16 0 00.371-.878c0-.352-.124-.651-.371-.899a1.201 1.201 0 00-.879-.371h-7.5c-.338 0-.631.124-.879.371a1.224 1.224 0 00-.371.899c0 .351.124.644.371.878.248.235.54.352.879.352z" fill="#211710"/></symbol>
<symbol id="i-check" viewBox="0 0 40 40" fill="none" xmlns="http://www.w3.org/2000/svg"><path d="M20 0c-3.62 0-6.966.892-10.04 2.676A19.75 19.75 0 002.677 9.96C.892 13.034 0 16.38 0 20c0 3.62.892 6.966 2.676 10.04a19.75 19.75 0 007.285 7.284C13.034 39.108 16.38 40 20 40c3.62 0 6.966-.892 10.04-2.676a19.75 19.75 0 007.284-7.285C39.108 26.966 40 23.62 40 20c0-3.62-.892-6.966-2.676-10.04a19.75 19.75 0 00-7.285-7.284C26.966.892 23.62 0 20 0zm0 37.54a17.6 17.6 0 01-5.527-.88 16.223 16.223 0 01-4.825-2.52 19.602 19.602 0 01-3.77-3.788 16.483 16.483 0 01-2.5-4.825A17.599 17.599 0 012.5 20c0-2.37.462-4.635 1.387-6.797.924-2.161 2.168-4.023 3.73-5.586 1.563-1.562 3.425-2.806 5.586-3.73A17.107 17.107 0 0120 2.5c2.37 0 4.635.462 6.797 1.387 2.161.924 4.023 2.168 5.586 3.73 1.562 1.563 2.806 3.425 3.73 5.586A17.107 17.107 0 0137.5 20c0 2.37-.462 4.635-1.387 6.797-.924 2.161-2.168 4.03-3.73 5.605-1.563 1.576-3.425 2.826-5.586 3.75A17.107 17.107 0 0120 37.54zm7.969-24.845L16.25 24.492l-5.273-5.273c-.26-.26-.56-.39-.899-.39-.338 0-.638.13-.898.39a1.43 1.43 0 00-.273.469 1.452 1.452 0 00-.06.253.962.962 0 000 .274c.014.091.033.182.06.273a.901.901 0 00.116.254l.157.235 6.21 6.171c.235.26.528.391.88.391.351 0 .644-.13.878-.39l.157-.157 12.46-12.539c.235-.234.352-.527.352-.879 0-.351-.117-.644-.351-.879-.47-.468-.977-.534-1.524-.195a1.042 1.042 0 00-.273.195z" fill="#211710"/></symbol>
<symbol id="i-clock" viewBox="0 0 55 55" fill="none" xmlns="http://www.w3.org/2000/svg"><path d="M27.5 0c-4.977 0-9.578 1.226-13.804 3.68C9.471 6.131 6.132 9.47 3.68 13.695 1.226 17.922 0 22.523 0 27.5s1.226 9.578 3.68 13.804c2.452 4.225 5.791 7.564 10.016 10.017C17.922 53.774 22.523 55 27.5 55s9.578-1.226 13.804-3.68c4.225-2.452 7.564-5.791 10.017-10.016C53.774 37.078 55 32.477 55 27.5s-1.226-9.578-3.68-13.804C48.869 9.471 45.53 6.132 41.305 3.68 37.078 1.226 32.477 0 27.5 0zm0 51.616c-2.614 0-5.147-.403-7.6-1.208-2.453-.806-4.664-1.96-6.633-3.465a26.956 26.956 0 01-5.183-5.21c-1.487-1.969-2.632-4.18-3.438-6.633a24.2 24.2 0 01-1.208-7.6c0-3.259.635-6.374 1.906-9.346 1.271-2.972 2.981-5.532 5.13-7.68 2.148-2.149 4.708-3.859 7.68-5.13A23.522 23.522 0 0127.5 3.437c3.259 0 6.374.636 9.346 1.907 2.972 1.271 5.532 2.981 7.68 5.13 2.149 2.148 3.859 4.708 5.13 7.68a23.523 23.523 0 011.907 9.346c0 3.259-.636 6.374-1.907 9.346-1.271 2.972-2.981 5.54-5.13 7.707-2.148 2.167-4.708 3.885-7.68 5.157a23.523 23.523 0 01-9.346 1.906zm1.719-24.814v-16.49c0-.465-.17-.868-.51-1.208-.34-.34-.744-.51-1.209-.51-.465 0-.868.17-1.209.51-.34.34-.51.743-.51 1.209V27.5c0 .501.18.913.537 1.235l.027.054.027.054 8.54 8.486c.322.358.725.537 1.209.537.483 0 .886-.17 1.208-.51.322-.34.483-.752.483-1.235 0-.484-.16-.887-.483-1.209l-8.11-8.11z" fill="#211710"/></symbol>
<symbol id="i-comment" viewBox="0 0 40 38" fill="none" xmlns="http://www.w3.org/2000/svg"><path d="M16.602 25.415c2.994 0 5.703-.537 8.125-1.611 2.421-1.074 4.329-2.605 5.722-4.594 1.393-1.988 2.077-4.256 2.051-6.8 0-.85-.11-1.685-.332-2.507a10.749 10.749 0 00-.938-2.346 11.41 11.41 0 00-1.484-2.108 14.377 14.377 0 00-1.953-1.83 15.347 15.347 0 00-2.383-1.511c-.872-.45-1.79-.829-2.754-1.134A21.378 21.378 0 0019.61.26 20.56 20.56 0 0016.33 0c-2.97 0-5.704.55-8.204 1.65-2.5 1.101-4.48 2.606-5.938 4.515C.73 8.074 0 10.155 0 12.409c0 2.254.547 4.402 1.64 6.443a10.923 10.923 0 004.727 4.654v.08c0 1.166-.716 2.995-2.148 5.488h.039a.8.8 0 00-.078.358 1.137 1.137 0 00.078.417.782.782 0 00.097.18.688.688 0 00.313.238l.195.08.215.04a.816.816 0 00.137-.02l.098-.02h.039c.729-.107 1.582-.392 2.558-.856a20.312 20.312 0 002.695-1.53c.82-.558 1.537-1.081 2.149-1.572.612-.49 1.009-.855 1.191-1.093.183.026.352.053.508.079.156.026.306.04.45.04h1.699zM12.93 22.67l-1.602 1.352c-.208.265-.664.683-1.367 1.253-.703.57-1.38 1.053-2.031 1.451a17.7 17.7 0 00.586-1.889 19.7 19.7 0 00.234-1.054v-.278l.117-1.552L7.5 21.24a8.505 8.505 0 01-3.73-3.72c-.847-1.63-1.27-3.333-1.27-5.11 0-1.803.618-3.46 1.855-4.972 1.237-1.51 2.917-2.704 5.04-3.579 2.122-.875 4.433-1.313 6.933-1.313s4.798.438 6.895 1.313c2.096.875 3.75 2.068 4.96 3.58C29.396 8.947 30 10.605 30 12.409a9.024 9.024 0 01-1.016 4.196 10.02 10.02 0 01-2.773 3.341c-1.172.915-2.585 1.637-4.238 2.168-1.654.53-3.418.795-5.293.795a14.503 14.503 0 01-2.383-.12l-1.367-.119zm27.07 0c0-3.527-1.536-6.205-4.61-8.035-.078.77-.286 1.684-.624 2.745 1.041.742 1.757 1.518 2.148 2.326.39.81.586 1.797.586 2.963a7.59 7.59 0 01-.234 1.93 5.635 5.635 0 01-.743 1.67 6.37 6.37 0 01-1.308 1.432c-.534.437-1.166.855-1.895 1.252l-1.21.597c.078 2.174.182 3.54.312 4.097a18.6 18.6 0 01-1.29-1.034c-.39-.345-.702-.65-.937-.915a18.931 18.931 0 01-.605-.716 4.8 4.8 0 01-.371-.517l-.078-.16-1.328.2c-.157.026-.391.046-.704.06-.312.013-.599.02-.859.02h-.352c-3.255 0-5.937-.836-8.046-2.506h-3.555l-.04.04c.496.61 1.056 1.173 1.68 1.69.626.517 1.303.98 2.032 1.392.729.41 1.51.762 2.343 1.054a15 15 0 002.657.656c.937.146 1.914.219 2.93.219h.742c.547 0 1.054-.027 1.523-.08.573.663 1.55 1.525 2.93 2.585 1.38 1.061 2.656 1.697 3.828 1.91h.234c.235 0 .43-.08.586-.24a.817.817 0 00.235-.596.717.717 0 00-.079-.318c-.13-.212-.273-.53-.43-.955a16.386 16.386 0 01-.761-2.843 8.019 8.019 0 01-.137-1.372v-.08c3.62-1.909 5.43-4.733 5.43-8.471z" fill="#211710"/></symbol>
<symbol id="i-credit-card-small" viewBox="0 0 24 15" fill="none" xmlns="http://www.w3.org/2000/svg"><path d="M21.464 0H2.22c-.4 0-.77.097-1.11.29C.771.484.501.744.3 1.071.1 1.4 0 1.756 0 2.143v10.714c0 .595.216 1.101.648 1.518.431.417.956.625 1.572.625h19.244a2.18 2.18 0 001.573-.625 2.03 2.03 0 00.647-1.518V2.143c0-.387-.1-.744-.3-1.072-.2-.327-.47-.587-.81-.78-.34-.194-.71-.291-1.11-.291zM2.22 1.429h19.244c.2 0 .374.07.52.212.147.141.22.308.22.502V3.57H1.48V2.143c0-.194.074-.361.22-.502a.724.724 0 01.52-.212zM21.464 13.57H2.22c-.2 0-.374-.07-.52-.212a.675.675 0 01-.22-.502V6.43h20.724v6.428c0 .194-.073.361-.22.502a.724.724 0 01-.52.212z" fill="#BEB8B2"/></symbol>
<symbol id="i-credit-card" viewBox="0 0 40 26" fill="none" xmlns="http://www.w3.org/2000/svg"><path d="M36.25 0H3.75c-.677 0-1.302.167-1.875.502A3.8 3.8 0 00.508 1.853 3.546 3.546 0 000 3.707v18.532c0 1.03.365 1.905 1.094 2.626.729.72 1.614 1.08 2.656 1.08h32.5c1.042 0 1.927-.36 2.656-1.08.73-.72 1.094-1.596 1.094-2.626V3.707c0-.67-.17-1.287-.508-1.854A3.8 3.8 0 0038.125.502 3.652 3.652 0 0036.25 0zM3.75 2.471h32.5c.339 0 .632.122.879.367.247.244.371.534.371.869v2.47h-35v-2.47c0-.335.124-.625.371-.87.247-.244.54-.366.879-.366zm32.5 21.004H3.75c-.339 0-.632-.122-.879-.367a1.18 1.18 0 01-.371-.869V11.12h35v11.12c0 .335-.124.625-.371.87-.247.244-.54.366-.879.366z" fill="#211710"/></symbol>
<symbol id="i-diamond" viewBox="0 0 41 40" fill="none" xmlns="http://www.w3.org/2000/svg"><path d="M39.81 11.523l-5.468-10.43c-.157-.312-.417-.572-.782-.78C33.196.104 32.844 0 32.506 0h-25c-.339 0-.69.104-1.055.313-.365.208-.625.468-.781.78L.2 11.329c-.155.313-.22.677-.194 1.094.026.416.143.755.351 1.015l18.75 26.172c.209.26.456.391.742.391.13 0 .26-.033.39-.098.131-.065.248-.162.352-.293l19.063-25.937c.417-.6.495-1.25.234-1.953a1.513 1.513 0 00-.078-.196zm-3.008-.273h-6.68l2.696-7.695 3.984 7.695zM22.467 2.5h8.046l-2.5 7.148L22.466 2.5zm3.632 8.75H14.498l5.469-7.89 6.132 7.89zm-13.828-1.21l-2.5-7.54h7.774l-5.274 7.54zm14.336 3.71l-6.719 19.219-6.406-19.219h13.125zm-9.531 18.71L3.638 13.75h7.227l6.21 18.71zm12.187-18.71h7.227L22.7 32.5l6.563-18.75zM7.35 3.203l2.696 8.047H3.092l4.257-8.047z" fill="#211710"/></symbol>
<symbol id="i-heart" viewBox="0 0 34 34" fill="none" xmlns="http://www.w3.org/2000/svg"><g clip-path="url(#clip0)"><path d="M30.44 4.27c-3.838-3.227-9.768-2.743-13.44.996-3.672-3.739-9.602-4.23-13.44-.996-4.994 4.203-4.264 11.057-.705 14.689l11.648 11.867A3.482 3.482 0 0017 31.882c.95 0 1.833-.372 2.497-1.05l11.648-11.866C34.697 15.333 35.44 8.48 30.44 4.27zM28.874 16.72L17.226 28.588c-.16.16-.292.16-.452 0L5.127 16.72c-2.424-2.47-2.916-7.145.484-10.007 2.584-2.172 6.568-1.846 9.065.697L17 9.78l2.324-2.37c2.51-2.557 6.495-2.869 9.065-.704 3.393 2.862 2.888 7.564.484 10.014z" fill="#211710"/></g></symbol>
<symbol id="i-instagram" viewBox="0 0 20 20" fill="none" xmlns="http://www.w3.org/2000/svg"><path d="M9.902 0c1.667 0 3.028.02 4.082.059.899.039 1.7.195 2.403.468.677.26 1.263.638 1.758 1.133.494.495.872 1.08 1.132 1.758.274.703.43 1.504.47 2.402.038 1.055.058 2.416.058 4.082 0 1.667-.02 3.028-.059 4.082-.039.899-.195 1.7-.469 2.403a4.983 4.983 0 01-1.133 1.758 4.983 4.983 0 01-1.757 1.132c-.703.274-1.504.43-2.403.47-1.054.038-2.415.058-4.082.058-1.666 0-3.027-.02-4.082-.059-.898-.039-1.699-.195-2.402-.469a4.983 4.983 0 01-1.758-1.133 4.984 4.984 0 01-1.133-1.757c-.273-.703-.43-1.504-.468-2.403C.019 12.93 0 11.57 0 9.902 0 8.236.02 6.875.059 5.82c.039-.898.195-1.699.468-2.402A4.984 4.984 0 011.66 1.66 4.984 4.984 0 013.418.527C4.121.254 4.922.097 5.82.06 6.875.019 8.236 0 9.902 0zm0 1.29c-1.731 0-3.144.019-4.238.058a6.27 6.27 0 00-1.953.37 3.566 3.566 0 00-1.992 1.993 6.27 6.27 0 00-.371 1.953 123.48 123.48 0 00-.059 4.238c0 1.732.02 3.145.059 4.239a6.27 6.27 0 00.37 1.953 3.566 3.566 0 001.993 1.992c.599.221 1.25.345 1.953.371 1.094.04 2.507.059 4.238.059 1.732 0 3.145-.02 4.239-.059a6.268 6.268 0 001.953-.371 3.566 3.566 0 001.992-1.992c.221-.6.345-1.25.371-1.953a123.4 123.4 0 00.059-4.239c0-1.731-.02-3.144-.059-4.238a6.268 6.268 0 00-.371-1.953 3.566 3.566 0 00-1.992-1.992 6.27 6.27 0 00-1.953-.371c-1.094-.04-2.507-.059-4.239-.059zm0 12.577c1.094 0 2.028-.387 2.803-1.162.775-.775 1.162-1.709 1.162-2.803 0-1.093-.387-2.028-1.162-2.802-.775-.775-1.709-1.162-2.803-1.162-1.093 0-2.028.387-2.802 1.162-.775.774-1.162 1.709-1.162 2.802 0 1.094.387 2.028 1.162 2.803.774.775 1.709 1.162 2.802 1.162zm0-9.043c1.407 0 2.605.495 3.594 1.485.99.99 1.484 2.187 1.484 3.593 0 1.407-.494 2.605-1.484 3.594-.99.99-2.187 1.484-3.594 1.484-1.406 0-2.604-.494-3.593-1.484-.99-.99-1.485-2.187-1.485-3.594 0-1.406.495-2.604 1.485-3.593.99-.99 2.187-1.485 3.593-1.485zm6.485-.195c0 .325-.117.602-.352.83-.234.228-.52.342-.86.342a1.13 1.13 0 01-.83-.342 1.13 1.13 0 01-.341-.83c0-.339.114-.625.342-.86.228-.234.504-.351.83-.351.325 0 .608.12.85.361.24.241.36.524.36.85z" fill="#EEE7DF"/></symbol>
<symbol id="i-paypal" viewBox="0 0 16 18" fill="none" xmlns="http://www.w3.org/2000/svg"><path d="M4.226 15.03H.506a.526.526 0 01-.206-.045.586.586 0 01-.19-.131.59.59 0 01-.103-.44L2.383 1.195c.069-.363.238-.653.508-.87A1.48 1.48 0 013.847 0h5.717c1.148 0 2.075.343 2.78 1.028.707.686 1.06 1.585 1.06 2.699 0 .386-.046.805-.138 1.256-.092.452-.224.92-.396 1.407a6.915 6.915 0 01-.689 1.406 6.707 6.707 0 01-.981 1.213c-.368.357-.81.641-1.326.852a4.33 4.33 0 01-1.653.317H5.724l-.999 4.465a.747.747 0 01-.103.202.402.402 0 01-.173.14.568.568 0 01-.223.044zm-3.1-1.038h2.686l1.016-4.447a.488.488 0 01.173-.29.473.473 0 01.31-.114h2.91a3.238 3.238 0 001.877-.59 4.595 4.595 0 001.29-1.432c.162-.281.308-.571.44-.87.132-.299.238-.6.319-.905.08-.305.14-.592.18-.862.04-.27.06-.521.06-.755 0-.41-.065-.783-.197-1.117a2.266 2.266 0 00-.569-.843 2.645 2.645 0 00-.895-.537 3.343 3.343 0 00-1.162-.193H3.847c-.264 0-.42.123-.465.37L1.126 13.991zM5.982 18h-3.72a.477.477 0 01-.378-.185.501.501 0 01-.12-.413l.481-2.777a.492.492 0 01.207-.334.488.488 0 01.379-.088c.092.012.172.05.24.114.07.065.121.138.156.22.034.082.04.17.017.264l-.361 2.162h2.686l.964-4.5a.599.599 0 01.103-.211.51.51 0 01.396-.193h2.91c.402 0 .784-.07 1.146-.211.361-.141.677-.325.947-.554.27-.229.522-.495.757-.8.236-.304.43-.624.586-.958.155-.334.287-.674.396-1.02.109-.345.19-.676.24-.993.053-.316.078-.609.078-.878 0-1.196-.482-2.01-1.446-2.444a.5.5 0 01-.284-.29.498.498 0 01.008-.395.504.504 0 01.285-.273.47.47 0 01.387.009c.448.2.826.46 1.136.782.31.322.543.706.698 1.152.155.445.232.931.232 1.459 0 .468-.06.978-.18 1.529-.121.55-.32 1.119-.595 1.705a7.755 7.755 0 01-.99 1.59 4.516 4.516 0 01-1.463 1.17 4.166 4.166 0 01-1.938.457H7.446l-.965 4.5a.496.496 0 01-.5.404zm.672-10.74h-1a.486.486 0 01-.395-.194.335.335 0 01-.06-.087.815.815 0 01-.044-.106.366.366 0 01-.017-.114v-.114l.672-3.78a.473.473 0 01.069-.184.517.517 0 01.43-.255h1.619c.631 0 1.102.193 1.412.58.344.41.453.99.327 1.74-.08.586-.238 1.064-.474 1.433a2.1 2.1 0 01-.972.817c-.414.176-.936.264-1.567.264zm-.396-1.037h.396c.711 0 1.205-.126 1.48-.378.276-.252.454-.677.534-1.275.07-.433.035-.732-.103-.896a.62.62 0 00-.18-.123.836.836 0 00-.216-.07 1.454 1.454 0 00-.241-.018H6.74l-.482 2.76z" fill="#BEB8B2"/></symbol>
<symbol id="i-picture" viewBox="0 0 40 34" fill="none" xmlns="http://www.w3.org/2000/svg"><path d="M37.5 0h-35C1.823 0 1.237.248.742.744.247 1.241 0 1.828 0 2.507v28.834c0 .68.247 1.267.742 1.763s1.08.744 1.758.744h35c.677 0 1.263-.248 1.758-.744.495-.496.742-1.084.742-1.763V2.507c0-.444-.11-.862-.332-1.253a2.396 2.396 0 00-.918-.921A2.49 2.49 0 0037.5 0zm0 31.341h-35v-7.365l10.04-9.755 10.35 10.343a.928.928 0 00.801.372c.326-.013.632-.124.918-.333l4.57-4.153 8.204 8.501c.026 0 .065.026.117.079v2.311zm0-5.876l-7.344-7.561a1.354 1.354 0 00-.8-.353c-.3-.026-.58.065-.84.274l-4.727 4.114-10.312-10.264a1.23 1.23 0 00-.899-.47 1.152 1.152 0 00-.937.352L2.5 20.45V2.507h35v22.958zm-8.75-12.929c.443 0 .86-.11 1.25-.333a2.437 2.437 0 001.25-2.174c0-.679-.247-1.267-.742-1.763s-1.08-.744-1.758-.744c-.677 0-1.263.248-1.758.744a2.435 2.435 0 00-.742 1.783c0 .692.247 1.28.742 1.763.495.483 1.08.724 1.758.724z" fill="#211710"/></symbol>
<symbol id="i-plane" viewBox="0 0 56 55" fill="none" xmlns="http://www.w3.org/2000/svg"><path d="M50.479 3.438c.469 0 .865.053 1.19.16.072.215.117.484.135.806.018.323 0 .734-.054 1.236-.054.501-.252 1.056-.595 1.665a8.152 8.152 0 01-1.38 1.772L37.279 21.484l.109 1.504c.144 2.722.432 7.377.865 13.965.325 5.765.505 8.737.541 8.916a.92.92 0 01-.216.591c-.253.25-.577.609-.974 1.074-.397.466-.83.95-1.298 1.45a830.8 830.8 0 01-5.302-14.34l-1.894-5.05-3.84 3.814-7.034 6.714-1.028 1.02v1.343c-.036.68-.036 2.292 0 4.834v2.9l.054.054.108.054c-.216-.358-.36-.609-.432-.752l-.325-.483c-2.092-3.294-3.318-5.246-3.679-5.855l-.487-.698-.703-.483a307.297 307.297 0 01-7.303-4.512c.036 0 .072.036.108.107l.054.054h3.652l.514.027.568.027h3.11l1.407-.054.974-.967 6.816-6.982 3.842-3.814-5.086-1.826a2272.105 2272.105 0 01-14.553-5.37c.505-.502.983-.95 1.434-1.344.45-.393.82-.698 1.109-.913l.379-.215h.108c.252 0 3.498.197 9.738.591 6.816.466 11.307.752 13.47.86l1.57.107L46.15 5.425c1.334-1.325 2.777-1.987 4.328-1.987zm0-3.438c-1.118 0-2.263.242-3.435.725-1.173.483-2.282 1.244-3.328 2.283l-11.415 11.28-4.788-.296-6.086-.376c-2.02-.126-3.967-.25-5.843-.376a645.228 645.228 0 00-4.625-.296 122.981 122.981 0 00-1.92-.107h-.271c-.217 0-.442.018-.677.054a4.306 4.306 0 00-.892.268c-.361.143-.704.358-1.028.645l-3.95 3.545c-.685.68-.973 1.414-.865 2.202.072.788.54 1.36 1.406 1.719 2.273.895 7.755 2.918 16.447 6.069l-6.817 6.982H11.31c-.757 0-1.956-.009-3.597-.027a416.894 416.894 0 00-3.003-.026h-.784l-.27.026-.353.081-.432.188-.541.295-.622.403-.73.564-.163.161c-.505.537-.776 1.11-.812 1.72-.036.608.217 1.127.758 1.557.793.644 3.859 2.56 9.197 5.747a800.49 800.49 0 003.95 6.23c1.009 1.647 1.55 2.525 1.622 2.632.36.573.884.877 1.569.913h.054c.65 0 1.28-.304 1.894-.913.252-.286.477-.564.676-.832.198-.269.352-.51.46-.725l.27-.538.136-.456.054-.35v-.268l-.027-.161c.036-.358.045-1.593.027-3.706s-.01-3.527.027-4.243l7.033-6.768c.83 2.256 2.001 5.425 3.516 9.507 1.515 4.082 2.362 6.32 2.543 6.714.325.824.883 1.289 1.677 1.396h.27c.325 0 .659-.08 1.001-.241.343-.161.659-.385.947-.672.18-.179.424-.43.73-.752.307-.322.776-.832 1.407-1.53a51.077 51.077 0 001.434-1.639c.721-.859 1.046-1.826.974-2.9 0-.072-.082-1.54-.244-4.404-.162-2.865-.36-6.222-.595-10.071-.234-3.85-.406-6.651-.514-8.406l11.415-11.333c.938-.967 1.668-1.996 2.191-3.088.523-1.092.803-2.104.839-3.035.036-.93-.045-1.772-.244-2.524-.198-.752-.496-1.307-.892-1.665C53.364.394 52.138 0 50.478 0z" fill="#211710"/></symbol>
<symbol id="i-shield" viewBox="0 0 44 55" fill="none" xmlns="http://www.w3.org/2000/svg"><path d="M42.942 7.68a3.573 3.573 0 00-1.084-.67 3.338 3.338 0 00-1.243-.242h-.211l-.053.026-.132.027h-1.243c-2.538 0-4.795-.25-6.77-.752-1.022-.25-2.115-.752-3.278-1.504a32.124 32.124 0 01-3.358-2.497C24.494 1.155 23.904.662 23.798.59A3.165 3.165 0 0021.948 0c-.353 0-.688.045-1.006.134-.317.09-.617.242-.899.457l-.264.268-.714.672-1.031.94-1.322 1.074-1.508 1.02-1.64.887-1.718.617c-1.974.502-4.248.752-6.822.752H3.887l-.185-.027-.106-.026h-.211c-.423 0-.838.08-1.243.241a3.134 3.134 0 00-1.084.725C.353 8.414 0 9.238 0 10.205V18.8c0 4.332.388 8.325 1.163 11.977.776 3.653 1.737 6.67 2.883 9.05 1.146 2.382 2.512 4.53 4.098 6.446 1.587 1.916 3.05 3.366 4.39 4.35a27.503 27.503 0 004.204 2.552c1.463.716 2.494 1.155 3.094 1.316.6.16 1.093.277 1.48.349a.984.984 0 00.318.054h.317c.176 0 .37-.018.582-.054.247-.036.564-.108.952-.215s1.084-.358 2.089-.752a25.754 25.754 0 002.935-1.37c.952-.519 2.062-1.28 3.332-2.282a26.128 26.128 0 003.516-3.357c1.076-1.236 2.16-2.784 3.253-4.646a35.282 35.282 0 002.803-6.07c.775-2.184 1.401-4.77 1.877-7.76S44 22.2 44 18.798v-8.594c0-1.003-.353-1.844-1.058-2.524zM40.615 18.8c0 12.783-3.384 22.147-10.154 28.09-2.855 2.435-5.693 3.957-8.514 4.566a7.688 7.688 0 01-1.084-.242c-.44-.125-1.305-.5-2.591-1.128a22.333 22.333 0 01-3.676-2.255c-1.163-.878-2.459-2.176-3.887-3.895-1.428-1.718-2.653-3.66-3.675-5.827-1.023-2.166-1.887-4.924-2.592-8.272-.705-3.348-1.057-7.027-1.057-11.037v-8.594c.035 0 .079.009.132.027a.578.578 0 00.185.027h1.322c2.82 0 5.377-.287 7.668-.86 1.375-.322 2.83-.984 4.363-1.987 1.534-1.002 2.742-1.916 3.623-2.74l1.27-1.234c.352.358.837.814 1.453 1.37.617.554 1.754 1.378 3.412 2.47 1.657 1.092 3.173 1.8 4.548 2.121 2.291.573 4.83.86 7.615.86h.846l.635-.054h.158V18.8zm-11.423-.269a1.75 1.75 0 00-1.216-.483 1.75 1.75 0 00-1.216.483L22 23.418l-4.813-4.888c-.317-.322-.713-.483-1.19-.483-.475 0-.872.161-1.19.483a1.602 1.602 0 00-.422.78c-.07.303-.07.599 0 .885a1.6 1.6 0 00.423.752l4.812 4.888-4.812 4.888a1.62 1.62 0 00-.476 1.181c0 .466.158.869.476 1.209.317.34.714.51 1.19.51s.872-.161 1.19-.483L22 28.252l4.76 4.888a1.75 1.75 0 001.216.483 1.75 1.75 0 001.216-.483c.6-.645.688-1.343.265-2.095a3.121 3.121 0 00-.265-.322l-4.812-4.888 4.812-4.888a1.6 1.6 0 00.423-.752c.07-.286.07-.582 0-.886a1.602 1.602 0 00-.423-.779z" fill="#211710"/></symbol>
<symbol id="i-smile" viewBox="0 0 40 41" fill="none" xmlns="http://www.w3.org/2000/svg"><path d="M30.508 24.176a1.257 1.257 0 00-.957-.02c-.326.12-.554.338-.684.657l-.176.359-.488.796-.86 1.155-1.25 1.215-1.64 1.135-2.05.817-2.481.338a.17.17 0 00-.078.02l-.04.02a9.18 9.18 0 01-2.109-.24 7.375 7.375 0 01-1.797-.656 14.48 14.48 0 01-1.464-.896 7.277 7.277 0 01-1.211-1.056 25.758 25.758 0 01-.918-1.055 7.04 7.04 0 01-.664-.956 75.539 75.539 0 00-.391-.677 1.755 1.755 0 01-.156-.319 1.272 1.272 0 00-.703-.657 1.204 1.204 0 00-.957.04 1.195 1.195 0 00-.664.697c-.118.318-.098.65.058.995.026.08.072.186.137.32.065.132.202.364.41.696.208.332.423.664.645.996.22.332.52.71.898 1.135.378.425.775.823 1.191 1.195.417.372.905.743 1.465 1.115s1.146.69 1.758.956c.612.265 1.302.484 2.07.657.769.173 1.556.259 2.364.259a.63.63 0 00.156-.04c1.484 0 2.89-.259 4.219-.777 1.328-.517 2.382-1.088 3.164-1.712a12.795 12.795 0 002.129-2.17c.638-.824 1.054-1.415 1.25-1.773.195-.359.345-.657.449-.896a.736.736 0 00.137-.379.99.99 0 00-.04-.398 4.073 4.073 0 00-.136-.358.916.916 0 00-.235-.32 1.212 1.212 0 00-.351-.218zM20 0c-2.708 0-5.3.538-7.773 1.613C9.753 2.688 7.624 4.136 5.84 5.954c-1.784 1.82-3.203 3.99-4.258 6.512A20.344 20.344 0 000 20.392c0 2.762.527 5.404 1.582 7.926 1.055 2.522 2.474 4.693 4.258 6.512 1.784 1.819 3.913 3.266 6.387 4.341A19.297 19.297 0 0020 40.784c2.708 0 5.3-.537 7.773-1.613 2.474-1.075 4.603-2.522 6.387-4.341 1.784-1.819 3.203-3.99 4.258-6.512A20.344 20.344 0 0040 20.392c0-2.761-.527-5.403-1.582-7.926-1.055-2.522-2.474-4.693-4.258-6.512-1.784-1.818-3.913-3.266-6.387-4.34A19.296 19.296 0 0020 0zm0 38.235a17.29 17.29 0 01-5.527-.896 16.372 16.372 0 01-4.825-2.549 19.337 19.337 0 01-3.77-3.843 16.926 16.926 0 01-2.5-4.92 18.266 18.266 0 01-.878-5.635c0-2.416.462-4.726 1.387-6.93.924-2.204 2.168-4.102 3.73-5.695 1.563-1.594 3.425-2.861 5.586-3.804A16.825 16.825 0 0120 2.549c2.37 0 4.635.471 6.797 1.414 2.161.943 4.023 2.21 5.586 3.804 1.562 1.593 2.806 3.491 3.73 5.695a17.737 17.737 0 011.387 6.93c0 2.416-.462 4.727-1.387 6.93-.924 2.204-2.168 4.103-3.73 5.696-1.563 1.593-3.425 2.86-5.586 3.803A16.825 16.825 0 0120 38.235zm-6.25-19.117c.677 0 1.257-.253 1.738-.757a2.508 2.508 0 00.723-1.792c0-.452-.11-.877-.332-1.275a2.459 2.459 0 00-.899-.936 2.356 2.356 0 00-1.23-.338c-.703 0-1.296.252-1.777.756a2.508 2.508 0 00-.723 1.793c0 1.035.443 1.792 1.328 2.27.39.186.781.279 1.172.279zm12.5 0c.182 0 .365-.027.547-.08.182-.053.358-.12.527-.2.17-.079.326-.178.469-.298.143-.12.273-.252.39-.398a2.16 2.16 0 00.469-.996c.04-.199.059-.392.059-.577 0-.69-.24-1.288-.723-1.793a2.34 2.34 0 00-1.758-.756 2.34 2.34 0 00-1.757.756 2.508 2.508 0 00-.723 1.793c0 .69.24 1.287.723 1.792a2.361 2.361 0 001.777.757z" fill="#211710"/></symbol>
</svg>